<?xml version="1.0" encoding="utf-8"?>
<!-- Generator: Adobe Illustrator 15.0.0, SVG Export Plug-In . SVG Version: 6.00 Build 0)  -->
<!DOCTYPE svg PUBLIC "-//W3C//DTD SVG 1.1//EN" "http://www.w3.org/Graphics/SVG/1.1/DTD/svg11.dtd">
<svg version="1.1" id="图层_1" xmlns="http://www.w3.org/2000/svg" xmlns:xlink="http://www.w3.org/1999/xlink" x="0px" y="0px"
	 width="566.93px" height="566.93px" viewBox="0 0 566.93 566.93" enable-background="new 0 0 566.93 566.93" xml:space="preserve">
<path fill="#FFFFFF" d="M285.516,471.212c-5.76-0.037-11.576-0.324-17.284-0.854l0.266-2.855c5.627,0.524,11.358,0.806,17.037,0.843
	L285.516,471.212z M294.173,471.079l-0.104-2.863c5.672-0.209,11.393-0.67,17.002-1.367l0.354,2.844
	C305.734,470.401,299.93,470.867,294.173,471.079z M259.632,469.366c-5.699-0.781-11.427-1.827-17.028-3.106l0.639-2.796
	c5.517,1.261,11.163,2.29,16.779,3.063L259.632,469.366z M319.988,468.436l-0.477-2.827c5.588-0.945,11.197-2.151,16.676-3.582
	l0.725,2.773C331.354,466.252,325.658,467.476,319.988,468.436z M234.208,464.146c-5.543-1.526-11.084-3.318-16.471-5.327
	l1.003-2.685c5.307,1.979,10.768,3.744,16.23,5.247L234.208,464.146z M345.238,462.424l-0.85-2.739
	c5.412-1.673,10.816-3.608,16.059-5.754l1.086,2.651C356.211,458.76,350.727,460.726,345.238,462.424z M209.676,455.608
	c-5.292-2.247-10.55-4.755-15.629-7.46l1.347-2.528c5.004,2.664,10.187,5.137,15.402,7.348L209.676,455.608z M369.455,453.14
	l-1.201-2.603c5.141-2.372,10.24-5.005,15.156-7.819l1.426,2.488C379.848,448.063,374.674,450.73,369.455,453.14z M186.486,443.91
	c-4.95-2.922-9.832-6.1-14.513-9.446l1.667-2.331c4.613,3.299,9.424,6.431,14.301,9.309L186.486,443.91z M392.242,440.745
	l-1.531-2.42c4.785-3.028,9.496-6.305,14.004-9.741l1.738,2.28C401.879,434.352,397.098,437.675,392.242,440.745z M165.037,429.272
	c-4.523-3.545-8.949-7.332-13.15-11.259l1.957-2.094c4.141,3.869,8.502,7.604,12.96,11.096L165.037,429.272z M413.219,425.471
	l-1.834-2.201c4.35-3.628,8.598-7.492,12.615-11.485l2.02,2.034C421.939,417.87,417.633,421.789,413.219,425.471z M145.691,411.967
	c-4.027-4.108-7.921-8.438-11.571-12.878l2.214-1.819c3.597,4.372,7.435,8.643,11.403,12.688L145.691,411.967z M432.027,407.583
	l-2.104-1.943c3.842-4.164,7.549-8.548,11.012-13.03l2.268,1.753C439.688,398.91,435.93,403.359,432.027,407.583z M128.77,392.291
	c-3.458-4.595-6.751-9.398-9.792-14.274l2.432-1.516c2.997,4.805,6.243,9.537,9.65,14.066L128.77,392.291z M448.352,387.395
	l-2.342-1.652c3.27-4.636,6.369-9.467,9.217-14.361l2.479,1.439C454.814,377.787,451.67,382.691,448.352,387.395z M114.565,370.584
	c-2.826-5.01-5.461-10.201-7.834-15.432l2.61-1.184c2.339,5.155,4.936,10.272,7.72,15.206L114.565,370.584z M461.898,365.232
	l-2.541-1.329c2.635-5.023,5.074-10.222,7.252-15.45l2.646,1.104C467.045,354.861,464.568,360.137,461.898,365.232z
	 M103.336,347.211c-2.142-5.337-4.072-10.832-5.736-16.334l2.744-0.828c1.639,5.422,3.541,10.835,5.652,16.092L103.336,347.211z
	 M472.416,341.474l-2.693-0.984c1.945-5.322,3.678-10.793,5.145-16.262l2.768,0.742
	C476.146,330.521,474.389,336.073,472.416,341.474z M95.28,322.536c-1.417-5.566-2.605-11.269-3.529-16.946l2.829-0.46
	c0.909,5.596,2.08,11.214,3.477,16.699L95.28,322.536z M479.695,316.558l-2.797-0.619c1.225-5.522,2.217-11.177,2.955-16.798
	l2.84,0.372C481.947,305.217,480.938,310.954,479.695,316.558z M90.548,297.019c-0.672-5.695-1.102-11.502-1.277-17.26l2.865-0.088
	c0.173,5.677,0.596,11.399,1.259,17.012L90.548,297.019z M483.629,290.906l-2.855-0.246c0.488-5.63,0.734-11.363,0.734-17.043h2.867
	C484.375,279.379,484.125,285.196,483.629,290.906z M92.059,271.137l-2.866-0.036c0.071-5.759,0.397-11.573,0.964-17.278
	l2.852,0.283C92.449,259.729,92.129,265.459,92.059,271.137z M481.479,270.028c-0.104-5.676-0.455-11.406-1.047-17.026l2.85-0.298
	c0.6,5.702,0.957,11.514,1.063,17.272L481.479,270.028z M94.038,245.636l-2.836-0.408c0.819-5.695,1.901-11.417,3.216-17.008
	l2.79,0.656C95.912,234.385,94.845,240.024,94.038,245.636z M479.354,244.54c-0.84-5.608-1.938-11.24-3.264-16.74l2.785-0.672
	c1.346,5.582,2.461,11.299,3.313,16.989L479.354,244.54z M99.342,220.616l-2.759-0.777c1.561-5.532,3.389-11.062,5.433-16.437
	l2.678,1.018C102.682,209.718,100.88,215.167,99.342,220.616z M473.906,219.552c-1.568-5.442-3.402-10.881-5.445-16.165l2.672-1.035
	c2.074,5.363,3.936,10.884,5.527,16.406L473.906,219.552z M107.91,196.498l-2.631-1.136c2.278-5.277,4.822-10.52,7.557-15.58
	l2.521,1.362C112.661,186.13,110.155,191.296,107.91,196.498z M465.217,195.52c-2.273-5.184-4.805-10.332-7.527-15.303l2.514-1.377
	c2.764,5.044,5.334,10.269,7.639,15.53L465.217,195.52z M119.584,173.719l-2.458-1.473c2.953-4.932,6.161-9.793,9.536-14.452
	l2.32,1.682C125.657,164.067,122.494,168.859,119.584,173.719z M453.436,172.836c-2.934-4.841-6.121-9.615-9.471-14.188l2.313-1.693
	c3.398,4.64,6.633,9.482,9.609,14.396L453.436,172.836z M134.143,152.674l-2.246-1.78c3.573-4.503,7.389-8.904,11.342-13.082
	l2.083,1.971C141.425,143.899,137.664,148.237,134.143,152.674z M438.775,151.881c-3.541-4.419-7.326-8.736-11.242-12.831
	l2.072-1.981c3.973,4.156,7.811,8.536,11.406,13.02L438.775,151.881z M151.32,133.716l-1.994-2.059
	c4.131-4.001,8.487-7.867,12.948-11.49l1.808,2.225C159.684,125.962,155.391,129.772,151.32,133.716z M421.504,133.013
	c-4.092-3.922-8.406-7.709-12.82-11.26l1.793-2.233c4.482,3.602,8.859,7.445,13.01,11.424L421.504,133.013z M170.814,117.161
	l-1.708-2.302c4.62-3.428,9.441-6.692,14.335-9.701l1.502,2.442C180.12,110.564,175.366,113.781,170.814,117.161z M401.914,116.552
	c-4.57-3.356-9.344-6.549-14.184-9.489l1.488-2.45c4.912,2.984,9.752,6.223,14.393,9.628L401.914,116.552z M192.296,103.298
	l-1.392-2.505c5.027-2.794,10.235-5.396,15.481-7.735l1.166,2.617C202.383,97.979,197.25,100.544,192.296,103.298z M380.336,102.789
	c-4.973-2.729-10.123-5.267-15.309-7.544l1.15-2.624c5.264,2.312,10.49,4.887,15.533,7.656L380.336,102.789z M215.398,92.381
	l-1.05-2.667c5.349-2.107,10.856-4.002,16.369-5.632l0.811,2.749C226.096,88.436,220.669,90.303,215.398,92.381z M357.125,91.979
	c-5.283-2.048-10.721-3.884-16.162-5.457l0.795-2.753c5.521,1.596,11.041,3.458,16.402,5.537L357.125,91.979z M239.762,84.597
	l-0.69-2.782c5.574-1.381,11.283-2.532,16.968-3.42l0.442,2.832C250.88,82.101,245.254,83.235,239.762,84.597z M332.719,84.335
	c-5.502-1.331-11.133-2.433-16.74-3.276l0.424-2.834c5.691,0.855,11.406,1.974,16.988,3.324L332.719,84.335z M264.938,80.095
	l-0.318-2.849c5.699-0.635,11.507-1.028,17.267-1.168l0.07,2.866C276.28,79.08,270.554,79.468,264.938,80.095z M307.516,79.975
	c-5.619-0.595-11.348-0.949-17.025-1.056l0.054-2.865c5.761,0.107,11.571,0.469,17.272,1.072L307.516,79.975z"/>
<circle fill="#BF391F" cx="92.471" cy="320.902" r="56.9"/>
<circle fill="#BF391F" cx="159.279" cy="120.928" r="56.9"/>
<circle fill="#BF391F" cx="419.634" cy="120.928" r="56.899"/>
<circle fill="#BF391F" cx="482.942" cy="320.902" r="56.899"/>
<path fill="#080809" d="M408.426,112.439c0.389,2.107,1.049,4.118,1.947,5.993l-2.582,3.355c1.047,1.849,2.299,3.566,3.725,5.121
	l3.992-1.419c1.52,1.447,3.23,2.696,5.094,3.706l-0.119,4.234c1.902,0.869,3.916,1.53,6.018,1.954l2.396-3.496
	c1.031,0.136,2.082,0.206,3.15,0.206s2.119-0.07,3.15-0.206l2.396,3.496c2.1-0.424,4.117-1.085,6.018-1.954l-0.117-4.234
	c1.861-1.01,3.572-2.259,5.096-3.706l3.986,1.419c1.43-1.555,2.68-3.271,3.727-5.121l-2.582-3.355
	c0.9-1.875,1.561-3.886,1.947-5.993l4.059-1.196c0.117-1.039,0.18-2.095,0.18-3.166c0-1.07-0.063-2.126-0.18-3.167l-4.059-1.195
	c-0.387-2.107-1.047-4.118-1.947-5.994l2.582-3.354c-1.047-1.849-2.297-3.565-3.727-5.121l-3.986,1.42
	c-1.523-1.447-3.234-2.697-5.096-3.708l0.117-4.233c-1.9-0.87-3.918-1.53-6.018-1.955l-2.396,3.496
	c-1.031-0.135-2.082-0.206-3.15-0.206s-2.119,0.07-3.15,0.206L426.5,80.77c-2.102,0.425-4.115,1.085-6.018,1.955l0.119,4.233
	c-1.863,1.011-3.574,2.26-5.094,3.708l-3.992-1.42c-1.426,1.555-2.678,3.272-3.725,5.121l2.582,3.354
	c-0.898,1.876-1.559,3.887-1.947,5.994l-4.059,1.195c-0.117,1.041-0.178,2.097-0.178,3.167c0,1.071,0.061,2.127,0.178,3.166
	L408.426,112.439z M416.213,108.077c0-8.745,7.088-15.833,15.834-15.833s15.834,7.089,15.834,15.833
	c0,8.746-7.088,15.835-15.834,15.835S416.213,116.823,416.213,108.077z"/>
<circle fill="#080809" cx="432.047" cy="108.077" r="6.414"/>
<path fill="#EDF0F1" d="M382.322,144.542c0.27,1.472,0.73,2.876,1.359,4.187l-1.803,2.343c0.73,1.291,1.605,2.49,2.602,3.576
	l2.785-0.991c1.064,1.011,2.258,1.883,3.559,2.589l-0.082,2.957c1.328,0.608,2.736,1.07,4.207,1.366l1.672-2.441
	c0.721,0.095,1.455,0.144,2.201,0.144c0.744,0,1.479-0.049,2.199-0.144l1.674,2.441c1.467-0.296,2.877-0.758,4.203-1.366
	l-0.08-2.957c1.299-0.707,2.494-1.579,3.557-2.589l2.787,0.991c0.998-1.085,1.871-2.285,2.604-3.576l-1.805-2.343
	c0.629-1.311,1.09-2.715,1.359-4.187l2.834-0.836c0.082-0.726,0.127-1.462,0.127-2.211s-0.045-1.486-0.127-2.212l-2.834-0.835
	c-0.27-1.472-0.73-2.876-1.359-4.187l1.805-2.342c-0.732-1.292-1.605-2.491-2.604-3.577l-2.787,0.991
	c-1.063-1.01-2.258-1.883-3.557-2.589l0.08-2.957c-1.326-0.606-2.736-1.069-4.203-1.366l-1.674,2.441
	c-0.721-0.093-1.455-0.143-2.199-0.143c-0.746,0-1.48,0.05-2.201,0.143l-1.672-2.441c-1.471,0.296-2.879,0.759-4.207,1.366
	l0.082,2.957c-1.301,0.706-2.494,1.579-3.559,2.589l-2.785-0.991c-0.996,1.086-1.871,2.286-2.602,3.577l1.803,2.342
	c-0.629,1.311-1.09,2.715-1.359,4.187l-2.836,0.835c-0.082,0.726-0.125,1.463-0.125,2.212s0.043,1.485,0.125,2.211L382.322,144.542z
	 M387.762,141.495c0-6.108,4.951-11.061,11.061-11.061c6.107,0,11.059,4.953,11.059,11.061c0,6.108-4.951,11.061-11.059,11.061
	C392.713,152.555,387.762,147.603,387.762,141.495z"/>
<circle fill="#FFFFFF" cx="398.822" cy="141.495" r="4.319"/>
<path fill="#FFFFFF" d="M516.541,334.746c0,2.53-2.053,4.581-4.582,4.581h-58.033c-2.529,0-4.582-2.051-4.582-4.581v-37.459
	c0-2.53,2.053-4.582,4.582-4.582h58.033c2.529,0,4.582,2.052,4.582,4.582V334.746z"/>
<path fill="#383552" d="M183.08,156.584l-21.264-20.029c-1.482-1.397,0.731-5.949,3.542-8.934c2.725-2.893,7.185-5.425,8.667-4.028
	l21.265,20.028c1.482,1.397,1.534,5.392-2.481,9.655C187.587,158.82,184.562,157.98,183.08,156.584z"/>
<polygon fill="#EDF0F1" points="166.631,126.269 135.51,96.955 134.912,93.247 124.65,86.827 122.341,89.279 129.355,99.132 
	133.094,99.508 164.221,128.827 "/>
<polygon fill="#CFCBD2" points="123.47,88.081 122.341,89.279 129.355,99.132 133.094,99.508 164.221,128.827 165.4,127.575 "/>
<path fill="#EDF0F1" d="M145.646,133.489c-5.495-5.175-14.146-4.916-19.318,0.578c-3.522,3.74-4.527,8.94-3.078,13.513l6.626-7.035
	l9.937-0.697l-0.101,9.962l-6.537,6.94c4.582,1.063,9.591-0.271,13.049-3.942C151.398,147.313,151.14,138.664,145.646,133.489z"/>
<path fill="#EDF0F1" d="M169.795,107.851c-5.495-5.176-5.754-13.826-0.577-19.319c3.521-3.739,8.652-5.052,13.302-3.879
	l-6.625,7.035l-0.102,9.961l9.937-0.696l6.538-6.94c1.334,4.51,0.303,9.589-3.155,13.26
	C183.939,112.766,175.29,113.025,169.795,107.851z"/>
<rect x="152.7" y="100.379" transform="matrix(0.7279 0.6857 -0.6857 0.7279 125.6573 -75.3122)" fill="#EDF0F1" width="10.041" height="40.581"/>
<path fill="#E76A11" d="M149.66,132.431c-0.832,0.882-2.223,0.924-3.105,0.093c-0.882-0.832-0.924-2.221-0.093-3.105l19.22-20.405
	c0.832-0.882,2.222-0.924,3.105-0.093c0.883,0.832,0.925,2.222,0.093,3.106L149.66,132.431z"/>
<path fill="#292843" d="M165.232,127.754c-2.751,2.985-4.878,7.425-3.417,8.801l21.264,20.029c1.482,1.396,4.508,2.235,9.728-3.308
	l0.062-0.066L165.232,127.754z"/>
<path fill="#BC935D" d="M363.695,396.928c-37.922-3.667-48.799-18.646-51.5-28.13c-5.262-18.468,0-44.03,0-44.03H287.34h-24.854
	c0,0,5.261,25.563,0,44.03c-2.701,9.483-13.579,24.463-51.5,28.13c-37.922,3.672-42.816,41.584-42.816,52.591
	c0,11.005,2.203,37.914,2.203,37.914h233.936c0,0,2.201-26.909,2.201-37.914C406.51,438.512,401.617,400.6,363.695,396.928z"/>
<path fill="#CFD1D3" d="M364.059,396.852c0,0-17.885-2.196-40.273-13.804c-9.365-4.855-23.813,13.114-36.08,13.114
	c-13.081,0-27.567-18.151-36.81-13.46c-24.444,12.408-39.544,14.149-39.544,14.149s-41.765,0-43.612,52.591
	c-0.386,11.001,2.557,37.914,2.557,37.914h117.409h116.971c0,0,2.863-26.928,2.201-37.914
	C403.701,396.852,364.059,396.852,364.059,396.852z"/>
<path fill="#C48F62" d="M264.518,339.327c0,1.7,0,5.28,0,5.28s12.91,8.427,22.519,8.427c9.607,0,22.518-8.427,22.518-8.427
	s0-3.58,0-5.28H264.518z"/>
<path fill="#DDAF7C" d="M287.34,172.025c-33.797,0.257-61.142,39.991-61.142,88.973c0,48.912,37.69,88.604,61.142,88.973
	c23.451-0.369,61.145-40.061,61.145-88.973C348.484,212.017,321.139,172.282,287.34,172.025z"/>
<ellipse transform="matrix(-0.8177 -0.5756 0.5756 -0.8177 484.5637 693.0621)" fill="#DDAF7C" cx="352.013" cy="269.811" rx="8.029" ry="14.718"/>
<circle fill="#A44773" cx="349.203" cy="277.563" r="3.029"/>
<polygon fill="#FFFFFF" points="315.525,376.137 287.579,396.162 259.156,375.794 250.896,382.702 259.152,425.144 287.169,397.126 
	315.211,425.144 323.785,383.048 "/>
<path fill="#080809" d="M368.488,222.478c-0.068-88.739-59.648-83.771-81.148-83.537c-21.498,0.234-81.583-3.129-81.144,85.786
	c0.118,24.065,8.999,45.861,23.563,61.688c-1.921-7.628-3.565-15.689-3.009-23.977c5.132-76.408,107.326-45.149,108.669-33.858
	c3.748,31.483-12.746,73.962-14.664,81.591C335.318,294.343,368.512,254.994,368.488,222.478z"/>
<ellipse transform="matrix(0.8177 -0.5756 0.5756 0.8177 -114.6402 177.5877)" fill="#DDAF7C" cx="223.092" cy="269.811" rx="8.029" ry="14.718"/>
<path fill="#080809" d="M293.802,192.273c0,0,13.077,2.749,21.235,23.123c8.736,21.817-17.079,67.309-17.079,67.309
	s47.062-59.877,32.667-80.938c-14.398-21.059-27.941-19.487-27.941-19.487L293.802,192.273z"/>
<path fill="#FFFFFF" d="M223.535,278.931c0,2.085-1.69,3.774-3.774,3.774h-7.167c-2.084,0-3.773-1.689-3.773-3.774v-33.089
	c0-2.084,1.688-3.774,3.773-3.774h7.167c2.084,0,3.774,1.689,3.774,3.774V278.931z"/>
<path fill="#FFFFFF" d="M366.066,277.541c0,2.086-1.691,3.776-3.775,3.776h-7.166c-2.086,0-3.775-1.69-3.775-3.776v-33.089
	c0-2.084,1.689-3.775,3.775-3.775h7.166c2.084,0,3.775,1.69,3.775,3.775V277.541z"/>
<path fill="#FFFFFF" d="M369.855,273.908c0,1.453-0.869,2.629-1.943,2.629h-3.693c-1.072,0-1.943-1.176-1.943-2.629v-23.044
	c0-1.451,0.871-2.628,1.943-2.628h3.693c1.074,0,1.943,1.177,1.943,2.628V273.908z"/>
<path fill="#FFFFFF" d="M212.611,273.908c0,1.453-0.871,2.629-1.945,2.629h-3.691c-1.075,0-1.945-1.176-1.945-2.629v-23.045
	c0-1.45,0.87-2.627,1.945-2.627h3.691c1.074,0,1.945,1.177,1.945,2.627V273.908z"/>
<polygon fill="#FFFFFF" points="306.773,325.523 288.469,321.997 288.186,334.438 306.635,331.743 "/>
<circle fill="#FFFFFF" cx="288.329" cy="328.218" r="6.893"/>
<path fill="#FFFFFF" d="M307.021,330.791c-5.908,0-9.594-0.554-9.847-0.592l0.61-3.964h0.001c0.166,0.024,10.095,1.48,23.534-0.533
	c12.371-1.855,30.359-7.125,45.791-21.688c8.463-7.99,12.508-17.272,12.02-27.594c-0.271-5.699-1.896-10.105-2.734-12.028h-7.908
	v-4.012h10.377l0.568,1.053c0.135,0.249,3.297,6.204,3.703,14.798c0.379,7.934-1.619,19.703-13.271,30.699
	c-16.232,15.322-35.113,20.834-48.096,22.76C316.084,330.535,311.041,330.791,307.021,330.791z"/>
<path fill="#0C3753" d="M60.438,304.309v40.932c0,1.936,1.446,3.503,3.228,3.503h58.868c1.782,0,3.227-1.567,3.227-3.503v-40.932
	H60.438z"/>
<path fill="#2D405D" d="M60.564,304.309c0,0,22.007-26.744,32.536-26.744c10.529,0,32.536,26.744,32.536,26.744H60.564z"/>
<rect x="66.714" y="290.663" fill="#FFFFFF" width="51.512" height="46.212"/>
<path fill="#080809" d="M107.393,327.845h3.721c-0.868,1.807-2.363,3.507-4.486,5.107c-1.861,1.434-3.9,2.483-6.12,3.153
	c-2.219,0.667-4.769,1.001-7.649,1.001c-3.225,0-6.13-0.425-8.714-1.281c-2.584-0.855-4.778-2.085-6.584-3.69
	c-1.807-1.605-3.185-3.564-4.134-5.883c-0.952-2.313-1.427-4.893-1.427-7.73c0-2.495,0.375-4.91,1.127-7.246
	c0.75-2.337,1.829-4.458,3.235-6.368c1.406-1.909,3.039-3.441,4.9-4.6c0.964-0.619,2.07-1.154,3.318-1.602
	c1.247-0.45,2.538-0.787,3.875-1.015c1.338-0.228,2.667-0.34,3.989-0.34c3.364,0,6.397,0.692,9.098,2.077
	c2.702,1.384,4.81,3.313,6.327,5.779c1.516,2.467,2.274,5.223,2.274,8.27c0,2.495-0.589,4.886-1.769,7.173
	c-1.178,2.286-2.731,4.135-4.662,5.54c-1.93,1.406-3.935,2.109-6.016,2.109c-2.191,0-3.459-0.744-3.804-2.232
	c-0.096-0.33-0.159-0.744-0.186-1.24c-0.952,1.088-1.978,1.941-3.081,2.553c-1.103,0.614-2.192,0.92-3.266,0.92
	c-1.379,0-2.64-0.41-3.784-1.229c-1.145-0.82-2.047-1.937-2.709-3.349c-0.661-1.415-0.991-2.989-0.991-4.725
	c0-2.178,0.514-4.289,1.54-6.338c1.028-2.046,2.375-3.696,4.045-4.951c1.669-1.253,3.378-1.879,5.129-1.879
	c2.606,0,4.696,1.271,6.268,3.818l0.674-3.241h3.716l-3.018,13.893c-0.069,0.345-0.12,0.602-0.155,0.773
	c-0.034,0.173-0.079,0.397-0.134,0.673c-0.193,0.813-0.289,1.406-0.289,1.779c0,0.343,0.145,0.654,0.434,0.931
	c0.29,0.275,0.621,0.413,0.993,0.413c0.456,0,1.066-0.21,1.831-0.63c0.765-0.421,1.485-0.929,2.162-1.521
	c0.648-0.604,1.212-1.261,1.694-1.964c0.484-0.702,0.887-1.446,1.211-2.231c0.324-0.785,0.583-1.609,0.776-2.471
	c0.193-0.861,0.289-1.747,0.289-2.657c0-2.439-0.641-4.658-1.921-6.657c-1.282-1.998-3.057-3.562-5.325-4.693
	c-2.267-1.13-4.786-1.694-7.556-1.694c-2.44,0-4.711,0.438-6.811,1.313c-2.103,0.875-3.933,2.12-5.49,3.733
	c-1.558,1.61-2.764,3.513-3.618,5.704c-0.855,2.192-1.282,4.557-1.282,7.091c0,3.321,0.707,6.176,2.12,8.561
	c1.412,2.383,3.456,4.199,6.13,5.446c2.673,1.248,5.892,1.871,9.655,1.871c2.164,0,4.113-0.227,5.85-0.683
	c1.737-0.453,3.391-1.177,4.962-2.171c0.938-0.591,1.634-1.095,2.088-1.509C106.296,329.292,106.813,328.673,107.393,327.845z
	 M83.68,319.245c0,1.13,0.192,2.153,0.578,3.069c0.386,0.917,0.913,1.629,1.581,2.141c0.668,0.511,1.429,0.764,2.283,0.764
	c0.924,0,1.836-0.285,2.739-0.857c0.901-0.572,1.719-1.35,2.448-2.336s1.306-2.1,1.726-3.34c0.421-1.24,0.63-2.508,0.63-3.804
	c0-1.212-0.199-2.273-0.6-3.186c-0.4-0.907-0.963-1.606-1.694-2.096c-0.73-0.49-1.591-0.734-2.584-0.734
	c-0.881,0-1.752,0.287-2.613,0.857c-0.862,0.572-1.623,1.341-2.284,2.305c-0.661,0.966-1.195,2.093-1.602,3.381
	C83.883,316.699,83.68,317.977,83.68,319.245z"/>
<polygon fill="#2295A4" points="125.636,343.245 93.758,322.848 125.636,304.309 "/>
<polygon fill="#2295A4" points="60.49,343.687 92.368,323.287 60.49,304.751 "/>
<path fill="#1C7078" d="M60.438,342.571l0.018,3.04c0.17,1.76,1.543,3.132,3.21,3.132h58.868c1.667,0,3.039-1.372,3.209-3.132
	l0.018-3.051c0,0-27.97-21.802-34.215-21.658C83.86,321.08,60.438,342.571,60.438,342.571z"/>
<rect x="457.838" y="300.923" fill="#2295A4" width="50.209" height="5.485"/>
<rect x="457.449" y="312.21" fill="#2295A4" width="50.207" height="5.487"/>
<rect x="457.838" y="323.729" fill="#2295A4" width="50.209" height="5.485"/>
<path fill="#FFFFFF" d="M214.79,242.868c7.986-33.114,37.182-57.668,71.986-57.668c34.807,0,64,24.554,71.986,57.668h2.16
	c-0.477-41.519-33.486-75.026-74.146-75.026c-40.658,0-73.669,33.507-74.145,75.026H214.79z"/>
<polygon fill="#FFFFFF" points="112.152,244.478 114.62,244.478 114.62,251.956 123.586,251.956 123.586,244.478 126.054,244.478 
	126.054,262.717 123.586,262.717 123.586,254.032 114.62,254.032 114.62,262.717 112.152,262.717 "/>
<polygon fill="#FFFFFF" points="130.966,244.478 142.498,244.478 142.498,246.556 133.433,246.556 133.433,251.956 142.12,251.956 
	142.12,254.032 133.433,254.032 133.433,260.641 142.718,260.641 142.718,262.717 130.966,262.717 "/>
<polygon fill="#FFFFFF" points="146.773,244.478 149.242,244.478 149.242,260.641 158.123,260.641 158.123,262.717 146.773,262.717 
	"/>
<path fill="#FFFFFF" d="M160.713,244.478h5.571c2.043,0,3.588,0.462,4.635,1.387c1.047,0.924,1.57,2.278,1.57,4.062
	c0,1.8-0.523,3.161-1.57,4.08c-1.047,0.92-2.592,1.381-4.635,1.381h-3.103v7.33h-2.468V244.478z M163.182,246.505v6.854h3.103
	c1.147,0,2.035-0.296,2.662-0.892c0.627-0.595,0.942-1.441,0.942-2.541c0-1.092-0.314-1.935-0.942-2.528
	c-0.627-0.595-1.515-0.893-2.662-0.893H163.182z"/>
<path fill="#FFFFFF" d="M407.941,260.641h8.613v2.076h-11.582v-2.076c0.938-0.97,2.213-2.271,3.828-3.904
	c1.619-1.633,2.633-2.686,3.051-3.158c0.787-0.888,1.342-1.64,1.654-2.254c0.313-0.614,0.471-1.219,0.471-1.813
	c0-0.97-0.34-1.76-1.021-2.37c-0.68-0.612-1.564-0.917-2.656-0.917c-0.773,0-1.59,0.134-2.449,0.402
	c-0.859,0.269-1.779,0.677-2.756,1.222v-2.492c0.996-0.399,1.924-0.7,2.787-0.903c0.861-0.204,1.652-0.306,2.369-0.306
	c1.889,0,3.395,0.473,4.521,1.417c1.121,0.944,1.684,2.207,1.684,3.786c0,0.75-0.141,1.461-0.42,2.132
	c-0.281,0.672-0.793,1.465-1.533,2.376c-0.205,0.237-0.852,0.918-1.943,2.045C411.467,257.035,409.928,258.612,407.941,260.641z"/>
<path fill="#FFFFFF" d="M427.867,244.478h3.104v11.888h2.6v2.052h-2.6v4.3h-2.457v-4.3h-8.234v-2.383L427.867,244.478z
	 M428.514,246.627l-6.23,9.738h6.23V246.627z"/>
<polygon fill="#FFFFFF" points="441.328,238.676 443.406,238.676 437.053,259.237 434.977,259.237 "/>
<polygon fill="#FFFFFF" points="445.459,244.478 457.186,244.478 457.186,245.529 450.564,262.717 447.988,262.717 454.217,246.556 
	445.459,246.556 "/>
<path fill="#FFFFFF" d="M288.617,115.771h-2.334v-1.881c0-0.822,0.115-1.499,0.344-2.028c0.227-0.53,0.708-1.145,1.441-1.845
	l1.101-1.087c0.464-0.432,0.799-0.839,1.008-1.223c0.207-0.381,0.31-0.772,0.31-1.172c0-0.724-0.267-1.311-0.799-1.758
	c-0.535-0.448-1.239-0.672-2.121-0.672c-0.643,0-1.33,0.143-2.057,0.428c-0.729,0.285-1.49,0.701-2.278,1.246v-2.297
	c0.765-0.463,1.542-0.811,2.325-1.038c0.787-0.228,1.6-0.342,2.438-0.342c1.499,0,2.702,0.396,3.61,1.185
	c0.908,0.789,1.363,1.832,1.363,3.126c0,0.62-0.148,1.208-0.441,1.766c-0.294,0.558-0.807,1.187-1.539,1.887l-1.074,1.05
	c-0.385,0.383-0.654,0.683-0.813,0.898c-0.158,0.215-0.271,0.426-0.337,0.629c-0.049,0.171-0.084,0.378-0.109,0.624
	c-0.025,0.244-0.037,0.579-0.037,1V115.771z M286.21,117.566h2.482v3.104h-2.482V117.566z"/>
</svg>
