<?xml version="1.0" encoding="utf-8"?>
<!-- Generator: Adobe Illustrator 15.0.0, SVG Export Plug-In . SVG Version: 6.00 Build 0)  -->
<!DOCTYPE svg PUBLIC "-//W3C//DTD SVG 1.1//EN" "http://www.w3.org/Graphics/SVG/1.1/DTD/svg11.dtd">
<svg version="1.1" id="图层_1" xmlns="http://www.w3.org/2000/svg" xmlns:xlink="http://www.w3.org/1999/xlink" x="0px" y="0px"
	 width="566.93px" height="566.93px" viewBox="0 0 566.93 566.93" enable-background="new 0 0 566.93 566.93" xml:space="preserve">
<g>
	<path fill="#2D405D" d="M179.919,583.708h8.907c3.269,0,5.738,0.74,7.413,2.218c1.672,1.479,2.509,3.643,2.509,6.495
		c0,2.878-0.837,5.052-2.509,6.523c-1.675,1.471-4.145,2.207-7.413,2.207h-4.961v11.719h-3.945V583.708z M183.865,586.951v10.959
		h4.961c1.835,0,3.254-0.477,4.258-1.427c1.001-0.951,1.504-2.306,1.504-4.063c0-1.745-0.502-3.094-1.504-4.044
		c-1.003-0.95-2.423-1.426-4.258-1.426H183.865z"/>
	<polygon fill="#2D405D" points="204.042,583.708 207.987,583.708 207.987,609.551 222.188,609.551 222.188,612.87 204.042,612.87 	
		"/>
	<path fill="#2D405D" d="M234.766,583.708h4.473l11.114,29.162h-4.102l-2.657-7.48h-13.145l-2.656,7.48h-4.16L234.766,583.708z
		 M236.993,587.596l-5.351,14.513h10.723L236.993,587.596z"/>
	<polygon fill="#2D405D" points="254.61,583.708 259.924,583.708 272.854,608.104 272.854,583.708 276.682,583.708 276.682,612.87 
		271.37,612.87 258.439,588.475 258.439,612.87 254.61,612.87 	"/>
	<polygon fill="#2D405D" points="284.535,583.708 289.848,583.708 302.775,608.104 302.775,583.708 306.605,583.708 306.605,612.87 
		301.293,612.87 288.361,588.475 288.361,612.87 284.535,612.87 	"/>
	<rect x="314.457" y="583.708" fill="#2D405D" width="3.945" height="29.162"/>
	<polygon fill="#2D405D" points="326.256,583.708 331.568,583.708 344.498,608.104 344.498,583.708 348.326,583.708 348.326,612.87 
		343.014,612.87 330.084,588.475 330.084,612.87 326.256,612.87 	"/>
	<path fill="#2D405D" d="M376.063,608.711v-7.833h-6.445v-3.243h10.352v12.521c-1.523,1.081-3.201,1.897-5.039,2.452
		c-1.836,0.552-3.795,0.829-5.879,0.829c-4.559,0-8.123-1.331-10.695-3.993c-2.572-2.663-3.857-6.371-3.857-11.125
		c0-4.766,1.285-8.479,3.857-11.142c2.572-2.664,6.137-3.995,10.695-3.995c1.898,0,3.707,0.234,5.42,0.703
		c1.711,0.469,3.291,1.159,4.736,2.07v4.199c-1.459-1.237-3.008-2.168-4.648-2.793s-3.367-0.938-5.178-0.938
		c-3.566,0-6.246,0.996-8.035,2.987c-1.793,1.994-2.688,4.962-2.688,8.907c0,3.933,0.895,6.896,2.688,8.888
		c1.789,1.992,4.469,2.988,8.035,2.988c1.395,0,2.639-0.12,3.732-0.361S375.189,609.218,376.063,608.711z"/>
	<path fill="#786F83" d="M147.117,421.662c0,1.84-1.701,3.334-3.801,3.334H27.209c-2.1,0-3.802-1.494-3.802-3.334V300.329
		c0-1.842,1.703-3.334,3.802-3.334h116.106c2.1,0,3.801,1.492,3.801,3.334V421.662z"/>
	<path fill="#FAFAFD" d="M132.408,408.155c0,1.842-1.954,3.334-4.363,3.334H33.334c-2.409,0-4.361-1.492-4.361-3.334v-94.076
		c0-1.841,1.952-3.333,4.361-3.333h94.711c2.409,0,4.363,1.492,4.363,3.333V408.155z"/>
	<circle fill="#FAFAFD" cx="27.622" cy="310.746" r="3.607"/>
	<circle fill="#FAFAFD" cx="27.577" cy="325.138" r="3.607"/>
	<circle fill="#FAFAFD" cx="27.532" cy="339.529" r="3.607"/>
	<circle fill="#FAFAFD" cx="27.487" cy="353.922" r="3.607"/>
	<circle fill="#FAFAFD" cx="27.441" cy="368.313" r="3.606"/>
	<circle fill="#FAFAFD" cx="27.396" cy="382.705" r="3.607"/>
	<circle fill="#FAFAFD" cx="27.35" cy="397.098" r="3.607"/>
	<circle fill="#FAFAFD" cx="27.306" cy="411.489" r="3.607"/>
	<path fill="#1E2221" d="M28.973,310.746c0,1.356-0.947,2.456-2.115,2.456h-8.146c-1.168,0-2.114-1.1-2.114-2.456
		s0.946-2.457,2.114-2.457h8.146C28.025,308.289,28.973,309.39,28.973,310.746z"/>
	<path fill="#1E2221" d="M28.973,325.138c0,1.356-0.947,2.456-2.115,2.456h-8.146c-1.168,0-2.114-1.1-2.114-2.456
		c0-1.357,0.946-2.456,2.114-2.456h8.146C28.025,322.682,28.973,323.78,28.973,325.138z"/>
	<path fill="#1E2221" d="M28.973,339.529c0,1.357-0.947,2.457-2.115,2.457h-8.146c-1.168,0-2.114-1.1-2.114-2.457
		c0-1.356,0.946-2.457,2.114-2.457h8.146C28.025,337.072,28.973,338.173,28.973,339.529z"/>
	<path fill="#1E2221" d="M28.973,353.922c0,1.356-0.947,2.456-2.115,2.456h-8.146c-1.168,0-2.114-1.1-2.114-2.456
		c0-1.357,0.946-2.457,2.114-2.457h8.146C28.025,351.465,28.973,352.564,28.973,353.922z"/>
	<path fill="#1E2221" d="M28.973,368.313c0,1.357-0.947,2.458-2.115,2.458h-8.146c-1.168,0-2.114-1.101-2.114-2.458
		c0-1.356,0.946-2.457,2.114-2.457h8.146C28.025,365.855,28.973,366.956,28.973,368.313z"/>
	<path fill="#1E2221" d="M28.973,382.705c0,1.357-0.947,2.457-2.115,2.457h-8.146c-1.168,0-2.114-1.1-2.114-2.457
		c0-1.356,0.946-2.457,2.114-2.457h8.146C28.025,380.248,28.973,381.349,28.973,382.705z"/>
	<path fill="#1E2221" d="M28.973,397.098c0,1.355-0.947,2.456-2.115,2.456h-8.146c-1.168,0-2.114-1.101-2.114-2.456
		c0-1.357,0.946-2.457,2.114-2.457h8.146C28.025,394.641,28.973,395.74,28.973,397.098z"/>
	<path fill="#1E2221" d="M28.973,411.489c0,1.356-0.947,2.456-2.115,2.456h-8.146c-1.168,0-2.114-1.1-2.114-2.456
		c0-1.357,0.946-2.457,2.114-2.457h8.146C28.025,409.032,28.973,410.132,28.973,411.489z"/>
	<path fill="#040000" d="M62.179,353.445l0.544-1.332c-0.272,0.072-0.697,0.236-1.278,0.49c-1.251,0.525-2.049,0.788-2.393,0.788
		c-0.327,0-0.595-0.177-0.802-0.53c-0.208-0.354-0.313-0.811-0.313-1.373c0-0.471,0.118-1.033,0.354-1.687
		c0.234-0.652,0.489-1.097,0.761-1.332c0.471-0.363,2.538-1.396,6.201-3.101l0.815-0.354c0.164-0.109,0.426-0.235,0.789-0.381
		c2.411-1.178,3.953-1.768,4.624-1.768c0.599,0,1.065,0.172,1.401,0.517c0.334,0.344,0.5,0.833,0.495,1.468
		c0,1.358-0.635,3.762-1.902,7.207c-0.291,0.834-0.521,1.492-0.693,1.972c-0.173,0.481-0.421,1.192-0.749,2.136
		c-0.091,0.344-0.189,0.697-0.298,1.061c-0.635,2.121-1.097,3.717-1.386,4.785c-0.037,0.128-0.159,0.558-0.367,1.292
		c-0.208,0.734-0.356,1.265-0.448,1.591c-0.091,0.326-0.19,0.662-0.298,1.006c-1.215,4.642-2.229,7.614-3.046,8.92
		c-0.271,0.418-0.589,0.789-0.951,1.115c-0.78,0.6-1.456,1.062-2.026,1.389c-0.571,0.326-1.113,0.558-1.631,0.693
		c-0.516,0.135-1.101,0.203-1.753,0.203c-0.943,0-1.781-0.276-2.515-0.829c-0.735-0.553-1.102-1.183-1.102-1.89
		c0-0.127,0.037-0.335,0.109-0.626C56.458,368.512,59.078,361.369,62.179,353.445z"/>
	<path fill="#040000" d="M83.745,374.604h0.162c0.599,0,1.347-0.275,2.243-0.828c0.899-0.553,1.782-1.283,2.652-2.189
		c1.124-1.16,2.018-2.397,2.679-3.713c0.662-1.313,0.993-2.542,0.993-3.685c0-2.483-1.315-3.988-3.944-4.515
		c-0.508-0.072-0.87-0.186-1.087-0.34c-0.217-0.154-0.327-0.395-0.327-0.721c0-0.362,0.436-0.916,1.306-1.659
		c1.306-1.142,2.326-2.389,3.06-3.739c0.734-1.35,1.102-2.706,1.102-4.065c0-1.45-0.299-2.176-0.897-2.176
		c-0.491,0-1.099,0.386-1.822,1.155c-0.726,0.771-1.419,1.755-2.082,2.951c-0.661,1.196-1.155,2.375-1.481,3.535
		c-0.11,0.399-0.217,0.657-0.327,0.775c-0.109,0.117-0.264,0.177-0.462,0.177c-0.526,0-1.18-0.408-1.959-1.224
		c-1.104-1.179-1.659-2.375-1.659-3.59c0-1.396,0.567-2.783,1.7-4.161c1.133-1.378,2.606-2.493,4.42-3.346
		c1.812-0.851,3.672-1.277,5.574-1.277c1.542,0,2.947,0.3,4.216,0.897c1.269,0.599,2.257,1.428,2.964,2.488
		c0.707,1.061,1.061,2.253,1.061,3.576c0,2.411-1.043,4.342-3.127,5.793c-1.088,0.743-2.438,1.451-4.052,2.121v0.108
		c2.556,0.146,4.477,0.717,5.765,1.714c1.287,0.997,1.931,2.393,1.931,4.188c0,0.835-0.195,1.755-0.584,2.761
		c-0.389,1.006-0.944,2.04-1.659,3.1c-0.717,1.062-1.573,2.118-2.57,3.169c-2.176,2.303-4.542,4.103-7.099,5.398
		c-2.555,1.296-5.013,1.944-7.369,1.944c-2.249,0-4.121-0.717-5.616-2.148c-1.496-1.433-2.244-3.228-2.244-5.385
		c0-1.468,0.503-2.938,1.511-4.405c1.005-1.469,2.306-2.67,3.902-3.604c1.595-0.934,3.191-1.4,4.786-1.4
		c0.67,0,1.006,0.244,1.006,0.734c0,0.199-0.281,0.534-0.844,1.006c-0.053,0.055-0.112,0.113-0.177,0.177
		c-0.063,0.063-0.13,0.132-0.203,0.204c-0.708,0.815-1.256,1.83-1.646,3.046c-0.391,1.215-0.585,2.483-0.585,3.808
		C82.956,372.564,83.218,373.68,83.745,374.604z"/>
	<path fill="#DE8226" d="M163.219,508.129L163.219,508.129l0.252,0.119c0,0,0-0.002,0-0.002L163.219,508.129L163.219,508.129z
		 M203.372,472.072h-6.03l-19.954,42.68l-1.188,2.545c-0.011,0.021-0.021,0.045-0.032,0.068c-1.223,2.617-3.901,4.127-6.775,4.127
		c-1.191,0-2.412-0.258-3.581-0.805l-0.027-0.015l0.042-0.091c-0.452-0.213-0.877-0.462-1.271-0.737
		c0.277,2.614,1.98,5.093,4.672,6.364l-0.043,0.092l0.029,0.013c1.167,0.546,2.391,0.806,3.58,0.806
		c2.874,0,5.551-1.511,6.775-4.128l0.02-0.046h0.002l1.256-2.688L203.372,472.072L203.372,472.072z"/>
	<path fill="#1E2221" d="M476.488,465.112c0,3.843-3.113,6.96-6.959,6.96H128.957c-3.844,0-6.959-3.117-6.959-6.96V245.179
		c0-3.844,3.115-6.96,6.959-6.96h340.572c3.846,0,6.959,3.116,6.959,6.96V465.112L476.488,465.112z"/>
	<polygon fill="#C7BCCF" points="467.607,461.766 132.204,461.766 132.204,247.003 467.607,247.003 467.607,461.766 	"/>
	<polygon fill="#E6E0EE" points="447.723,461.513 152.09,461.513 152.09,246.751 447.723,246.751 447.723,461.513 	"/>
	<polygon fill="#C7BCCF" points="423.428,461.513 320.723,461.513 423.428,461.766 423.428,461.513 	"/>
	<polygon fill="#D7CEDE" points="423.428,247.003 301.414,247.003 301.414,461.466 320.723,461.513 423.428,461.513 
		423.428,247.003 	"/>
	<polygon fill="#FAFAFD" points="416.516,492.834 299.244,461.766 299.244,247.003 416.516,217.365 	"/>
	<path fill="#FAFAFD" d="M200.559,300.199c0,1.842-1.492,3.334-3.332,3.334h-27.622c-1.841,0-3.333-1.492-3.333-3.334v-27.62
		c0-1.841,1.492-3.334,3.333-3.334h27.622c1.84,0,3.332,1.493,3.332,3.334V300.199z"/>
	<path fill="#FAFAFD" d="M200.559,347.012c0,1.841-1.492,3.332-3.332,3.332h-27.622c-1.841,0-3.333-1.491-3.333-3.332v-27.621
		c0-1.841,1.492-3.333,3.333-3.333h27.622c1.84,0,3.332,1.492,3.332,3.333V347.012z"/>
	<path fill="#FAFAFD" d="M200.559,395.26c0,1.841-1.492,3.334-3.332,3.334h-27.622c-1.841,0-3.333-1.493-3.333-3.334v-27.621
		c0-1.84,1.492-3.333,3.333-3.333h27.622c1.84,0,3.332,1.493,3.332,3.333V395.26z"/>
	<rect x="207.461" y="277.239" fill="#C7BCCF" width="73.12" height="6.217"/>
	<rect x="207.461" y="286.389" fill="#C7BCCF" width="73.12" height="6.217"/>
	<rect x="207.461" y="320.474" fill="#C7BCCF" width="73.12" height="6.216"/>
	<rect x="207.461" y="329.623" fill="#C7BCCF" width="73.12" height="6.216"/>
	<rect x="207.461" y="339.229" fill="#C7BCCF" width="73.12" height="6.217"/>
	<polygon fill="#C7BCCF" points="280.582,375.179 207.461,375.179 207.461,368.963 280.582,368.963 280.582,375.179 	"/>
	<rect x="207.461" y="378.112" fill="#C7BCCF" width="73.12" height="6.216"/>
	<rect x="207.461" y="387.719" fill="#C7BCCF" width="73.12" height="6.217"/>
	<path fill="#D2411C" d="M171.987,274.28c0.665,0.582,1.294,1.188,1.916,1.8c0.621,0.613,1.224,1.236,1.82,1.865
		c0.589,0.634,1.181,1.265,1.75,1.912c0.286,0.322,0.579,0.641,0.857,0.968l0.843,0.978c0.563,0.652,1.102,1.318,1.652,1.977
		l1.606,2.01l1.567,2.033l1.53,2.061l-4.286,0.095l1.02-1.79c0.337-0.598,0.681-1.191,1.036-1.778l1.057-1.769l1.085-1.748
		c0.363-0.584,0.724-1.166,1.103-1.738l1.122-1.729l1.153-1.708c0.381-0.571,0.78-1.132,1.175-1.694
		c0.397-0.563,0.789-1.126,1.2-1.679c0.41-0.554,0.807-1.116,1.227-1.663c0.42-0.549,0.831-1.102,1.258-1.645
		c0.43-0.542,0.85-1.089,1.29-1.625c0.441-0.535,0.872-1.075,1.326-1.603c0.446-0.531,0.904-1.058,1.366-1.579
		c0.93-1.04,1.873-2.072,2.9-3.053c-0.401,1.362-0.886,2.674-1.384,3.978c-0.253,0.65-0.511,1.297-0.778,1.937
		c-0.261,0.645-0.543,1.276-0.817,1.913c-0.275,0.637-0.57,1.26-0.853,1.892c-0.288,0.628-0.591,1.247-0.885,1.871
		c-0.295,0.624-0.612,1.234-0.917,1.852c-0.303,0.619-0.625,1.227-0.943,1.836c-0.318,0.61-0.634,1.221-0.968,1.821l-0.989,1.809
		l-1.021,1.788c-0.336,0.6-0.689,1.188-1.042,1.776l-1.056,1.767l-1.088,1.748c-0.359,0.585-0.729,1.163-1.106,1.737l-1.125,1.726
		l-2.25,3.457l-2.036-3.363l-1.328-2.195l-1.291-2.221l-1.25-2.247c-0.401-0.76-0.813-1.512-1.206-2.278l-0.585-1.149
		c-0.197-0.382-0.38-0.774-0.572-1.16c-0.382-0.771-0.743-1.559-1.106-2.344c-0.356-0.79-0.706-1.584-1.038-2.39
		C172.595,275.929,172.273,275.116,171.987,274.28z"/>
	<path fill="#D2411C" d="M171.985,372.221c0.667,0.582,1.296,1.188,1.917,1.799c0.62,0.613,1.224,1.236,1.82,1.866
		c0.589,0.633,1.181,1.265,1.75,1.911c0.286,0.323,0.579,0.641,0.857,0.969l0.843,0.977c0.563,0.652,1.102,1.319,1.652,1.979
		l1.606,2.008l1.567,2.034l1.53,2.061l-4.286,0.094l1.02-1.79c0.336-0.598,0.681-1.19,1.036-1.777l1.056-1.769l1.086-1.749
		c0.361-0.583,0.724-1.166,1.102-1.738l1.122-1.728l1.154-1.708c0.38-0.572,0.779-1.133,1.174-1.694
		c0.397-0.563,0.789-1.127,1.2-1.68c0.411-0.554,0.808-1.115,1.228-1.663c0.419-0.548,0.83-1.102,1.257-1.645
		c0.431-0.541,0.851-1.088,1.291-1.625c0.439-0.535,0.871-1.075,1.326-1.602c0.445-0.532,0.903-1.058,1.364-1.579
		c0.932-1.04,1.873-2.072,2.901-3.054c-0.401,1.363-0.885,2.675-1.384,3.979c-0.253,0.649-0.51,1.296-0.779,1.936
		c-0.259,0.646-0.542,1.276-0.817,1.913c-0.273,0.637-0.568,1.261-0.851,1.892c-0.288,0.629-0.592,1.247-0.886,1.871
		c-0.295,0.625-0.611,1.234-0.917,1.852c-0.302,0.62-0.625,1.227-0.943,1.836c-0.317,0.611-0.633,1.222-0.967,1.822l-0.989,1.808
		l-1.022,1.789c-0.336,0.599-0.688,1.188-1.041,1.776l-1.058,1.767l-1.087,1.747c-0.358,0.585-0.728,1.163-1.105,1.737l-1.125,1.726
		l-2.25,3.457l-2.036-3.363l-1.328-2.194l-1.291-2.222l-1.25-2.247c-0.401-0.76-0.814-1.511-1.206-2.278l-0.585-1.149
		c-0.199-0.382-0.38-0.772-0.572-1.159c-0.383-0.771-0.743-1.56-1.107-2.345c-0.355-0.789-0.705-1.585-1.039-2.39
		C172.595,373.869,172.273,373.057,171.985,372.221z"/>
	<rect x="166.272" y="432.496" fill="#FAFAFD" width="114.309" height="11.666"/>
	<polygon fill="#C7BCCF" points="207.258,461.766 207.601,461.036 206.539,460.539 206.549,460.515 207.807,457.826 
		236.496,396.458 236.625,396.519 239.691,377.319 239.838,377.387 239.947,375.727 240.56,371.894 239.985,372.553 
		236.807,375.971 236.951,376.039 224.189,390.704 224.173,390.697 224.173,390.697 195.485,452.065 195.426,452.039 
		194.169,454.728 194.227,454.753 194.215,454.78 193.986,454.672 193.154,454.283 189.656,461.766 207.258,461.766 	"/>
	<polygon fill="#C7BCCF" points="186.449,461.766 187.938,458.582 185.896,457.629 183.963,461.766 	"/>
	<path fill="#F1AB40" d="M388.967,176.482l-17.68-4.271c0.078-1.203,0.121-2.418,0.121-3.642c0-30.401-24.643-55.048-55.045-55.048
		s-55.047,24.646-55.047,55.048c0,30.402,24.645,55.047,55.047,55.047c24.553,0,45.354-16.079,52.443-38.281l17.029,4.113
		c3.58,0.863,7.182-1.337,8.047-4.918C394.75,180.951,392.547,177.347,388.967,176.482L388.967,176.482z"/>
	<path fill="#FAFAFD" d="M365.219,164.373c0,30.401-24.645,55.047-55.045,55.047c-30.403,0-55.049-24.646-55.049-55.047
		s24.646-55.048,55.049-55.048C340.574,109.325,365.219,133.972,365.219,164.373L365.219,164.373z"/>
	<path fill="#FAFAFD" d="M347.664,177.527c-3.582-0.865-5.783-4.469-4.918-8.05c0.863-3.582,4.469-5.782,8.049-4.916l31.979,7.724
		c3.582,0.865,5.783,4.469,4.918,8.05c-0.863,3.58-4.467,5.781-8.049,4.917L347.664,177.527z"/>
	<path fill="#DD7B27" d="M352.742,164.373c0,23.511-19.061,42.57-42.568,42.57c-23.512,0-42.572-19.059-42.572-42.57
		s19.061-42.57,42.572-42.57C333.682,121.803,352.742,140.862,352.742,164.373L352.742,164.373z"/>
	<path fill="#C96A25" d="M274.765,172.079c0-23.511,19.058-42.57,42.569-42.57c10.422,0,19.967,3.748,27.369,9.967
		c-7.732-10.704-20.318-17.673-34.529-17.673c-23.512,0-42.572,19.06-42.572,42.57c0,13.088,5.91,24.794,15.202,32.603
		C277.748,189.975,274.765,181.376,274.765,172.079L274.765,172.079z"/>
	<path fill="#786F83" d="M90.076,200.729c0,0,75.632-21.53,89.563-19.15c13.933,2.38,22.453,6.06,39.021,15.441
		c0.808,0.457,4.225-0.172,3.608-0.867c-11.365-12.804-30.863-21.218-42.233-20.872c-11.37,0.345-94.294,16.683-94.294,16.683
		L90.076,200.729L90.076,200.729z"/>
	<path fill="#786F83" d="M216.041,170.475c0,0-77.16,15.168-88.491,23.615c-11.332,8.449-17.25,15.598-27.751,31.48
		c-0.513,0.774-3.845,1.765-3.61,0.868c4.312-16.569,17.861-32.922,28.146-37.778c10.287-4.857,91.586-27.963,91.586-27.963
		L216.041,170.475L216.041,170.475z"/>
	<path fill="#F1DC86" d="M117.227,193.397c-15.188,3.928-27.069,7.31-27.149,7.332l2.488,6.059c0.77,3.199,3.6,5.354,6.709,5.354
		c0.523,0,1.054-0.061,1.584-0.188l1.541-0.369C106.571,204.296,111.958,197.833,117.227,193.397L117.227,193.397z M146.52,186.729
		c-9,2.648-16.099,5.221-18.97,7.36c-6.572,4.9-11.323,9.363-16.204,15.346l31.744-7.625c3.682-0.885,5.939-4.632,5.042-8.369
		L146.52,186.729L146.52,186.729z M136.655,168.236c-0.522,0-1.053,0.061-1.584,0.188l-45.316,10.885
		c-3.684,0.884-5.941,4.631-5.043,8.369l1.708,4.153c4.779-0.939,33.916-6.644,58.659-11.098l-1.716-7.143
		C142.596,170.392,139.765,168.236,136.655,168.236L136.655,168.236z"/>
	<path fill="#BCB7C1" d="M145.08,180.733c-24.744,4.454-53.88,10.158-58.659,11.098l3.657,8.898
		c0.081-0.022,11.961-3.404,27.149-7.332c2.439-2.054,4.854-3.673,7.109-4.738c2.785-1.314,10.768-3.965,20.934-7.133
		L145.08,180.733L145.08,180.733z"/>
	<path fill="#BCB7C1" d="M145.27,181.526c-10.167,3.167-18.149,5.818-20.934,7.133c-2.255,1.065-4.67,2.685-7.109,4.738
		c-5.269,4.436-10.656,10.898-14.827,18.188l8.946-2.149c4.881-5.982,9.632-10.445,16.204-15.346c2.871-2.14,9.969-4.712,18.97-7.36
		L145.27,181.526L145.27,181.526z"/>
	<path fill="#040000" d="M99.274,213.809c-3.921,0-7.314-2.666-8.297-6.5l-7.855-19.117l-0.03-0.125
		c-0.538-2.236-0.184-4.546,0.996-6.504c1.185-1.966,3.06-3.343,5.277-3.875l45.316-10.884c0.648-0.156,1.312-0.234,1.974-0.234
		c3.967,0,7.392,2.726,8.329,6.631l4.768,19.851c1.111,4.625-1.704,9.281-6.272,10.379l-42.231,10.143
		C100.601,213.73,99.937,213.809,99.274,213.809z M86.306,187.171l7.852,19.102l0.029,0.126c0.577,2.4,2.668,4.076,5.088,4.076
		c0.4,0,0.802-0.047,1.195-0.143l42.231-10.142c2.782-0.669,4.492-3.522,3.811-6.36l-4.769-19.851
		c-0.576-2.4-2.667-4.077-5.088-4.077c-0.399,0-0.801,0.047-1.195,0.142l-45.315,10.884c-1.344,0.323-2.481,1.159-3.201,2.355
		C86.24,184.452,86.015,185.829,86.306,187.171z"/>
	<path fill="#F1DC86" d="M176.964,181.395c-3.646,0-9.097,0.713-15.529,1.868l1.585,6.603c0.769,3.199,3.6,5.354,6.708,5.354
		c0.522,0,1.056-0.061,1.584-0.188l29.732-7.141c-7.065-3.114-13.324-4.932-21.406-6.312
		C178.911,181.454,178.013,181.395,176.964,181.395L176.964,181.395z M210.195,150.572c-0.523,0-1.054,0.061-1.585,0.188
		l-45.315,10.884c-3.683,0.885-5.939,4.632-5.042,8.371l1.688,7.028c25.885-7.793,55.981-16.347,55.981-16.347l0.12,9.778
		c0,0-12.151,2.388-27.517,5.798c6.708,1.559,14.443,4.871,21.468,9.469l3.552-0.853c3.683-0.885,5.941-4.632,5.042-8.37
		l-1.684-20.592C216.136,152.729,213.305,150.572,210.195,150.572L210.195,150.572z"/>
	<path fill="#BCB7C1" d="M188.524,176.272c-8.588,1.906-18.185,4.132-27.222,6.437l0.134,0.554
		c6.432-1.154,11.883-1.868,15.529-1.868c1.048,0,1.946,0.059,2.675,0.184c8.082,1.38,14.341,3.198,21.406,6.312l8.946-2.149
		C202.967,181.144,195.232,177.832,188.524,176.272L188.524,176.272z"/>
	<path fill="#BCB7C1" d="M215.921,160.696c0,0-30.096,8.554-55.981,16.347l1.362,5.666c9.038-2.305,18.634-4.53,27.222-6.437
		c15.366-3.41,27.517-5.798,27.517-5.798L215.921,160.696L215.921,160.696z"/>
	<path fill="#040000" d="M169.73,196.887L169.73,196.887c-3.967,0-7.392-2.728-8.33-6.632l-4.769-19.851
		c-1.11-4.625,1.704-9.281,6.275-10.379l45.315-10.884c0.648-0.156,1.312-0.235,1.974-0.235c3.966,0,7.391,2.727,8.329,6.632
		l0.029,0.125l1.684,20.599c1.026,4.581-1.778,9.16-6.304,10.247l-42.231,10.143C171.055,196.809,170.392,196.887,169.73,196.887z
		 M210.195,152.239c-0.4,0-0.802,0.048-1.196,0.143l-45.315,10.885c-2.783,0.668-4.493,3.521-3.812,6.359l4.769,19.851
		c0.576,2.4,2.669,4.077,5.088,4.077l0,0c0.398,0,0.802-0.048,1.196-0.143l42.229-10.144c2.783-0.668,4.493-3.521,3.812-6.359
		l-0.031-0.125l-1.682-20.584C214.637,153.861,212.574,152.239,210.195,152.239z"/>
	<path fill="#1E2221" d="M158.957,172.947c0.39,1.62-0.608,3.249-2.228,3.637l-9.024,2.167c-1.619,0.389-3.247-0.608-3.636-2.229
		c-0.39-1.619,0.608-3.248,2.228-3.637l9.023-2.167C156.939,170.33,158.568,171.328,158.957,172.947z"/>
	<path fill="#C7BCCF" d="M176.21,517.271c-1.73,3.699-6.365,5.188-10.354,3.322c-3.989-1.863-5.819-6.375-4.089-10.075
		c1.728-3.7,6.365-5.187,10.353-3.323C176.108,509.061,177.94,513.572,176.21,517.271L176.21,517.271z"/>
	<path fill="#786F83" d="M172.078,507.288l-0.03-0.013l-6.263,13.397l0.027,0.015c3.989,1.866,8.625,0.378,10.355-3.322
		S176.065,509.153,172.078,507.288L172.078,507.288z"/>
	<polygon fill="#1E2221" points="190.422,449.224 162.944,508 177.388,514.752 204.866,455.976 190.422,449.224 	"/>
	<polygon fill="#1E2221" points="221.44,385.637 162.805,511.062 175.128,516.821 233.761,391.396 221.44,385.637 	"/>
	<polygon fill="#786F83" points="227.601,388.517 168.967,513.942 162.805,511.062 221.44,385.637 227.601,388.517 	"/>
	<polygon fill="#1E2221" points="164.006,508.346 162.749,511.035 176.188,517.318 177.446,514.63 164.006,508.346 	"/>
	<polygon fill="#C7BCCF" points="233.892,391.459 237.825,366.832 221.454,385.644 233.892,391.459 	"/>
	<polygon fill="#786F83" points="227.672,388.551 233.892,391.459 237.825,366.837 227.672,388.551 	"/>
	<polygon fill="#161617" points="237.24,367.504 235.883,368.963 235.97,368.963 237.24,367.504 	"/>
	<polygon fill="#131314" points="235.97,368.963 235.883,368.963 234.074,370.91 234.218,370.978 235.97,368.963 	"/>
	<polygon fill="#131314" points="237.432,367.298 237.24,367.504 235.97,368.963 234.218,370.978 235.589,371.618 237.403,367.738 
		237.432,367.298 	"/>
	<polygon fill="#131314" points="237.212,370.668 236.958,372.258 237.105,372.326 237.212,370.668 	"/>
	<polygon fill="#0C0B0D" points="237.403,367.738 235.589,371.618 236.958,372.258 237.212,370.668 237.403,367.738 	"/>
	<polygon fill="#161617" points="192.693,446.979 191.437,449.667 191.494,449.694 192.751,447.005 192.693,446.979 	"/>
	<polygon fill="#060203" points="198.913,449.885 197.655,452.574 203.817,455.455 205.073,452.765 198.913,449.885 	"/>
	<polygon fill="#0C0B0D" points="192.751,447.005 191.494,449.694 197.655,452.574 198.913,449.885 192.751,447.005 	"/>
	<path fill="#191507" d="M176.53,472.072h-2.486l-15.91,34.037c-0.595,1.275-0.301,2.67,0.659,3.119l2.936,1.373
		c0.012-0.028,0.025-0.055,0.038-0.083c0.298-0.639,0.683-1.212,1.136-1.712l0.316-0.678l-1.172-0.547
		c-0.958-0.449-1.254-1.846-0.658-3.121L176.53,472.072L176.53,472.072z"/>
	<path fill="#170F06" d="M163.219,508.129l-0.316,0.678c0.179-0.198,0.369-0.385,0.568-0.559L163.219,508.129L163.219,508.129z"/>
	<polygon fill="#060203" points="181.348,461.766 178.862,461.766 174.044,472.072 176.53,472.072 181.348,461.766 	"/>
	<polygon fill="#131314" points="181.466,461.513 178.98,461.513 178.862,461.766 181.348,461.766 181.466,461.513 	"/>
	<polygon fill="#161617" points="183.163,452.567 178.98,461.513 181.466,461.513 185.204,453.521 183.163,452.567 	"/>
	<path fill="#131314" d="M163.471,508.248c-0.199,0.174-0.39,0.36-0.568,0.559c-0.454,0.5-0.838,1.073-1.136,1.712
		c-0.013,0.028-0.026,0.055-0.038,0.083l6.679,3.123l0.017-0.036l-5.619-2.627l-0.057-0.026l1.199-2.565L163.471,508.248
		L163.471,508.248z"/>
	<polygon fill="#0C0B0D" points="162.805,511.062 162.805,511.062 168.424,513.688 168.424,513.688 162.805,511.062 	"/>
	<polygon fill="#060203" points="163.947,508.47 162.749,511.035 162.805,511.062 168.424,513.688 169.625,511.123 163.947,508.47 	
		"/>
	
		<rect x="147.852" y="476.313" transform="matrix(0.4235 -0.9059 0.9059 0.4235 -331.1623 440.2165)" fill="#786F83" width="64.882" height="7.973"/>
	<path fill="#DE8226" d="M529.27,236.19h-4.229v224.265c0.051,0.247,0.078,0.503,0.078,0.764v0.404v4.666v16.237
		c0,2.071-1.672,3.749-3.734,3.749h-8.447c0.664,1.041,1.826,1.732,3.146,1.732h9.531c2.061,0,3.732-1.678,3.732-3.75v-16.236
		v-4.668v-0.402c0-0.261-0.025-0.517-0.078-0.766V236.19L529.27,236.19z"/>
	<polygon fill="#DE8226" points="520.854,212.682 519.053,217.632 525.119,234.316 512.986,234.316 512.934,234.458 
		516.621,234.458 525.041,234.458 525.041,236.048 529.348,236.048 520.854,212.682 	"/>
	<path fill="#FAFAFD" d="M521.385,457.471c2.063,0,3.734,1.68,3.734,3.748v21.308c0,2.071-1.672,3.749-3.734,3.749h-9.529
		c-2.064,0-3.732-1.678-3.732-3.749v-21.308c0-2.068,1.668-3.748,3.732-3.748H521.385L521.385,457.471z"/>
	<polygon fill="#35A7AD" points="525.041,234.458 525.041,478.306 508.203,478.306 508.203,234.458 525.041,234.458 	"/>
	<path fill="#F8F4E6" d="M518.697,218.609h-4.861l-5.711,15.707h4.861l5.08-13.976L518.697,218.609L518.697,218.609z
		 M516.623,210.95l2.43,6.682l0,0L516.623,210.95L516.623,210.95z"/>
	<polygon fill="#F7EEE8" points="519.053,217.632 519.053,217.632 519.408,218.609 518.697,218.609 518.066,220.341 
		512.986,234.316 525.119,234.316 519.053,217.632 	"/>
	<polygon fill="#181817" points="516.623,210.95 513.836,218.609 518.697,218.609 519.053,217.632 516.623,210.95 	"/>
	<polygon fill="#171716" points="519.053,217.632 518.697,218.609 519.408,218.609 519.053,217.632 	"/>
	<polygon fill="#1C7078" points="516.621,234.458 516.621,478.306 525.041,478.306 525.041,234.458 516.621,234.458 	"/>
	<polygon fill="#191919" points="525.119,461.623 525.041,461.623 525.041,466.289 525.119,466.289 525.119,461.623 	"/>
	<polygon fill="#041111" points="516.621,461.623 508.203,461.623 508.203,466.289 516.621,466.289 516.621,461.623 	"/>
	<polygon fill="#050A0C" points="525.041,461.623 516.621,461.623 516.621,466.289 525.041,466.289 525.041,461.623 	"/>
	<rect x="259.983" y="247.003" fill="#35A7AD" width="9.716" height="214.511"/>
	<path fill="#F3E29E" d="M401.725,67.346c-11.445,0-23.59,3.183-39.303,9.468c-14.145,5.657-26.389,20.156-35.809,35.009
		c5.867,1.834,11.311,4.624,16.154,8.186c3.115-2.016,6.438-4.021,9.975-5.98c10.371-5.751,21.494-7.564,32.912-7.564
		c9.738,0,19.693,1.32,29.574,2.639c9.885,1.319,19.697,2.638,29.156,2.638c4.07,0,8.078-0.245,11.996-0.838
		c34.064-5.162,67.244-31.73,64.285-31.73c-0.217,0-0.633,0.145-1.258,0.453c-5.607,2.764-22.758,8.003-41.836,8.003
		c-11.91,0-24.57-2.043-35.637-8.003C426.668,71.398,414.643,67.346,401.725,67.346L401.725,67.346z"/>
	<path fill="#FEFEFF" d="M326.613,111.822c-2.367,3.732-4.559,7.492-6.555,11.135c4.197,0.998,8.158,2.62,11.773,4.76
		c3.309-2.541,6.951-5.133,10.936-7.709C337.924,116.446,332.48,113.656,326.613,111.822L326.613,111.822z"/>
	<path fill="#F1C8A5" d="M317.334,129.509c-0.244,0-0.492,0.002-0.736,0.006c-6.691,13.178-10.445,23.513-10.445,23.513
		s6.98-10.121,21.746-22.196C324.521,129.968,320.98,129.509,317.334,129.509L317.334,129.509z M320.059,122.957
		C320.057,122.959,320.059,122.955,320.059,122.957c4.197,1,8.156,2.62,11.771,4.761l0.002-0.001
		C328.217,125.577,324.256,123.955,320.059,122.957L320.059,122.957z"/>
	<path fill="#E9C1A5" d="M320.059,122.957c-1.229,2.239-2.383,4.436-3.461,6.558c0.244-0.004,0.492-0.006,0.736-0.006
		c3.646,0,7.188,0.459,10.564,1.322c1.254-1.025,2.564-2.065,3.932-3.113C328.215,125.577,324.256,123.957,320.059,122.957
		L320.059,122.957z"/>
</g>
</svg>
