<?xml version="1.0" encoding="utf-8"?>
<!-- Generator: Adobe Illustrator 15.0.0, SVG Export Plug-In . SVG Version: 6.00 Build 0)  -->
<!DOCTYPE svg PUBLIC "-//W3C//DTD SVG 1.1//EN" "http://www.w3.org/Graphics/SVG/1.1/DTD/svg11.dtd">
<svg version="1.1" id="图层_1" xmlns="http://www.w3.org/2000/svg" xmlns:xlink="http://www.w3.org/1999/xlink" x="0px" y="0px"
	 width="566.93px" height="566.93px" viewBox="0 0 566.93 566.93" enable-background="new 0 0 566.93 566.93" xml:space="preserve">
<path fill="#D9EEF5" d="M466.218,336.373c-3.735-32.74-31.531-58.176-65.273-58.176c-9.23,0-18.017,1.907-25.989,5.344
	c-14.965-16.7-36.695-27.21-60.884-27.21c-41.476,0-75.732,30.894-81.022,70.925c-25.172,0.449-45.442,20.982-45.442,46.262
	c0,20.713,13.606,38.244,32.368,44.15c3.708,1.986,7.942,3.115,12.442,3.115h227.935c0.997,0.07,1.997,0.119,3.011,0.119
	c23.371,0,42.316-18.947,42.316-42.316C505.679,356.174,488.255,337.844,466.218,336.373z"/>
<path fill="#A4D9EC" d="M251.062,355.197c0,0,11.039,13.943,34.035,16.732c31.591,3.832,63.389-11.08,77.726-45.086
	c10.928-25.92,12.301-44.093,12.301-44.093s11.866,26.234,1.957,59.896c-7.243,24.604-25.756,32.07-25.756,32.07
	s39.504,20.137,76.808-18.125c30.814-31.607,16.182-62.785,16.182-62.785c-5.388-3.775,21,17.246,21.933,42.256
	c1.437,38.654-33.057,51.611-33.057,51.611s34.493,7.553,51.052-6.914c14.165-12.377,16.227-22.602,16.227-22.602
	s16.428,23.531-6.115,49.555c-9.273,10.705-28.964,13.596-28.964,13.596s-226.39,3.02-239.918-1.117
	c-39.257-12.006-37.409-46.648-37.409-46.648s4.686,6.766,18.848,8.613C249.222,387.674,251.062,355.197,251.062,355.197z"/>
<path fill="#57BFBF" d="M299.949,237.898h-16.957v-2.826h16.957V237.898z M274.512,237.898h-16.958v-2.826h16.958V237.898z
	 M249.075,237.898h-16.958v-2.826h16.958V237.898z M223.638,237.898H206.68v-2.826h16.958V237.898z M198.202,237.898h-16.958v-2.826
	h16.958V237.898z M172.765,237.898h-16.958v-2.826h16.958V237.898z M147.328,237.898h-16.959v-2.826h16.959V237.898z
	 M121.89,237.898h-16.958v-2.826h16.958V237.898z M96.454,237.898H79.496v-2.826h16.958V237.898z M308.541,237.85l-0.244-2.816
	c5.494-0.479,10.744-2.034,15.602-4.623l1.33,2.494C320.031,235.673,314.418,237.336,308.541,237.85z M70.876,237.751
	c-3.557-0.366-6.96-1.399-10.121-3.073c-2.154-0.686-4.279-1.533-6.315-2.52l1.233-2.544c1.952,0.946,3.991,1.756,6.058,2.408
	l0.125,0.039l0.118,0.063c2.866,1.535,5.958,2.482,9.191,2.815L70.876,237.751z M332.496,228.041l-1.797-2.18
	c4.258-3.512,7.711-7.765,10.262-12.64l2.504,1.31C340.738,219.743,337.049,224.289,332.496,228.041z M46.973,227.651
	c-4.723-3.478-8.725-7.738-11.895-12.665l2.377-1.529c2.983,4.637,6.748,8.646,11.193,11.918L46.973,227.651z M31.049,207.245
	c-2.209-5.409-3.392-11.135-3.514-17.019l2.826-0.058c0.114,5.535,1.227,10.921,3.305,16.008L31.049,207.245z M346.721,206.413
	l-2.717-0.782c1.057-3.67,1.594-7.486,1.594-11.344c0-1.633-0.098-3.276-0.289-4.884l2.808-0.334
	c0.204,1.719,0.308,3.474,0.308,5.218C348.424,198.409,347.851,202.489,346.721,206.413z M30.932,181.979l-2.79-0.453
	c0.938-5.786,2.917-11.287,5.879-16.35l2.44,1.427C33.675,171.365,31.814,176.538,30.932,181.979z M343.532,181.418
	c-1.729-5.218-4.455-9.968-8.104-14.118l2.122-1.866c3.9,4.436,6.816,9.515,8.665,15.095L343.532,181.418z M329.44,161.724
	c-4.396-3.345-9.327-5.725-14.657-7.077l0.694-2.74c5.701,1.446,10.975,3.992,15.674,7.567L329.44,161.724z M41.236,159.928
	l-2.139-1.847c3.835-4.443,8.393-8.102,13.549-10.876l1.339,2.489C49.133,152.304,44.845,155.747,41.236,159.928z M306.145,152.235
	c-0.629-5.508-1.969-10.91-3.984-16.058l2.633-1.03c2.104,5.375,3.504,11.016,4.159,16.768L306.145,152.235z M61.538,146.485
	l-0.861-2.692c4.029-1.288,8.217-2.031,12.468-2.213c0.112-0.763,0.235-1.526,0.368-2.283l2.784,0.489
	c-0.196,1.112-0.369,2.241-0.517,3.355l-0.159,1.207l-1.216,0.021C70.014,144.447,65.685,145.16,61.538,146.485z M78.161,131.675
	l-2.718-0.775c1.576-5.519,3.737-10.893,6.427-15.975l2.498,1.322C81.77,121.155,79.681,126.346,78.161,131.675z M298.645,128.668
	c-2.664-4.844-5.95-9.336-9.77-13.354l2.049-1.947c3.986,4.194,7.417,8.883,10.197,13.94L298.645,128.668z M282.791,109.683
	c-4.303-3.497-9.037-6.423-14.071-8.699l1.164-2.575c5.255,2.375,10.198,5.43,14.688,9.081L282.791,109.683z M88.637,109.103
	l-2.347-1.575c3.194-4.765,6.898-9.219,11.007-13.235l1.975,2.021C95.301,100.195,91.724,104.498,88.637,109.103z M220.21,99.201
	l-0.971-2.656c5.421-1.98,11.092-3.252,16.857-3.78l0.257,2.815C230.833,96.085,225.401,97.303,220.21,99.201z M260.962,98.069
	c-5.276-1.601-10.766-2.514-16.317-2.715l0.103-2.825c5.794,0.21,11.525,1.163,17.035,2.835L260.962,98.069z M212,96.78
	c-3.94-3.913-8.297-7.428-12.946-10.446l1.538-2.37c4.813,3.122,9.322,6.76,13.4,10.812L212,96.78z M105.521,90.809l-1.756-2.214
	c4.505-3.575,9.391-6.688,14.522-9.251l1.263,2.528C114.594,84.348,109.874,87.355,105.521,90.809z M191.841,82.169
	c-4.946-2.523-10.167-4.532-15.521-5.973l0.734-2.729c5.543,1.491,10.95,3.573,16.071,6.185L191.841,82.169z M127.184,78.542
	l-0.993-2.646c5.374-2.018,10.983-3.477,16.668-4.337l0.423,2.794C137.791,75.185,132.375,76.593,127.184,78.542z M168.178,74.456
	c-4.194-0.671-8.494-1.011-12.776-1.011c-1.275,0-2.565,0.031-3.834,0.09l-0.132-2.823c1.313-0.062,2.647-0.093,3.966-0.093
	c4.432,0,8.88,0.352,13.223,1.046L168.178,74.456z"/>
<path fill="#57BFBF" d="M485.95,433.719c-0.143,0-0.289,0-0.433-0.002l0.033-2.826c0.144,0.002,0.286,0,0.429,0.002
	c5.398,0,10.691-0.898,15.733-2.67l0.938,2.668c-5.346,1.877-10.954,2.828-16.669,2.828H485.95z M477.058,433.582h-16.957v-2.826
	h16.957V433.582z M451.621,433.582h-16.958v-2.826h16.958V433.582z M426.185,433.582h-16.958v-2.826h16.958V433.582z
	 M400.747,433.582H383.79v-2.826h16.957V433.582z M375.311,433.582h-16.958v-2.826h16.958V433.582z M349.873,433.582h-16.957v-2.826
	h16.957V433.582z M324.437,433.582h-16.958v-2.826h16.958V433.582z M299,433.582h-16.958v-2.826H299V433.582z M273.563,433.582
	h-16.958v-2.826h16.958V433.582z M248.125,433.582h-16.957v-2.826h16.957V433.582z M222.688,433.582h-3.463
	c-4.777,0.002-9.374-1.033-13.664-3.072l1.212-2.551c3.909,1.855,8.098,2.797,12.452,2.797h3.463V433.582z M197.732,427.313
	c-5.267-2.459-10.093-5.73-14.347-9.723l1.934-2.059c4.035,3.785,8.614,6.889,13.608,9.221L197.732,427.313z M510.589,427.297
	l-1.385-2.463c4.804-2.701,9.072-6.189,12.688-10.367l2.137,1.85C520.2,420.742,515.678,424.436,510.589,427.297z M177.534,411.162
	c-3.575-4.611-6.375-9.727-8.322-15.201l2.662-0.947c1.847,5.191,4.503,10.043,7.894,14.418L177.534,411.162z M529.139,409.262
	l-2.423-1.453c2.841-4.736,4.813-9.881,5.862-15.293l2.774,0.539C534.241,398.789,532.151,404.242,529.139,409.262z
	 M166.961,387.561c-0.602-3.271-0.907-6.631-0.907-9.986c0-2.453,0.164-4.92,0.486-7.334l2.801,0.373
	c-0.306,2.291-0.46,4.633-0.46,6.961c0,3.184,0.29,6.373,0.86,9.477L166.961,387.561z M536.265,384.393l-2.827-0.053
	c0.007-0.303,0.01-0.607,0.01-0.914c0-5.232-0.846-10.373-2.515-15.279l2.678-0.91c1.767,5.201,2.663,10.648,2.663,16.189
	C536.273,383.75,536.271,384.072,536.265,384.393z M171.08,362.559l-2.707-0.814c1.675-5.568,4.222-10.813,7.568-15.592l2.316,1.621
	C175.083,352.307,172.668,357.281,171.08,362.559z M527.619,360.623c-2.653-4.83-6.1-9.133-10.243-12.789l1.87-2.119
	c4.39,3.873,8.04,8.432,10.85,13.547L527.619,360.623z M510.763,342.947c-4.71-2.887-9.834-4.91-15.234-6.014l0.565-2.77
	c5.725,1.17,11.156,3.314,16.146,6.373L510.763,342.947z M183.502,341.414l-2.031-1.965c4.054-4.191,8.715-7.693,13.855-10.408
	l1.32,2.498C191.771,334.115,187.349,337.438,183.502,341.414z M487.875,334.83c-0.629-5.518-1.881-10.963-3.717-16.188l2.666-0.938
	c1.907,5.422,3.206,11.076,3.86,16.805L487.875,334.83z M204.223,328.281l-0.907-2.678c5.341-1.809,10.931-2.777,16.615-2.879
	l0.017,0.947l1.47,0.201l-0.22,1.656l-1.215,0.021C214.589,325.646,209.288,326.566,204.223,328.281z M222.922,315.662l-2.753-0.633
	c1.285-5.578,3.086-11.074,5.354-16.332l2.595,1.121C225.917,304.92,224.169,310.25,222.922,315.662z M480.96,310.965
	c-2.41-4.982-5.39-9.709-8.855-14.049l2.209-1.764c3.598,4.504,6.689,9.408,9.192,14.582L480.96,310.965z M231.767,292.311
	l-2.484-1.35c2.729-5.023,5.933-9.837,9.522-14.306l2.203,1.771C237.524,282.762,234.415,287.434,231.767,292.311z M466.562,290.717
	c-3.921-3.926-8.284-7.415-12.966-10.372l1.509-2.39c4.859,3.069,9.388,6.691,13.458,10.763L466.562,290.717z M446.332,276.307
	c-4.99-2.42-10.257-4.277-15.656-5.521l0.634-2.753c5.605,1.291,11.076,3.219,16.256,5.73L446.332,276.307z M383.492,275.345
	l-0.678-0.757c-0.604-0.673-1.223-1.345-1.84-1.995l2.049-1.947c0.406,0.429,0.813,0.865,1.217,1.306
	c4.138-1.719,8.442-3.081,12.813-4.052l0.613,2.759c-4.525,1.006-8.98,2.447-13.24,4.284L383.492,275.345z M246.522,272.157
	l-2.037-1.96c3.971-4.127,8.336-7.92,12.972-11.273l1.655,2.29C254.614,264.468,250.377,268.15,246.522,272.157z M422.481,269.376
	c-5.473-0.629-11.126-0.652-16.609-0.064l-0.3-2.81c5.688-0.609,11.553-0.587,17.232,0.066L422.481,269.376z M374.959,266.801
	c-4.175-3.676-8.701-6.994-13.453-9.86l1.459-2.421c4.897,2.955,9.561,6.373,13.861,10.16L374.959,266.801z M266.091,256.63
	l-1.444-2.43c4.927-2.929,10.143-5.425,15.502-7.418l0.985,2.649C275.934,251.367,270.871,253.788,266.091,256.63z M354.172,252.953
	c-4.998-2.431-10.242-4.421-15.59-5.913l0.76-2.723c5.51,1.539,10.916,3.589,16.066,6.096L354.172,252.953z M289.081,246.879
	l-0.742-2.727c5.513-1.499,11.204-2.508,16.921-2.997l0.241,2.816C299.953,244.447,294.43,245.425,289.081,246.879z
	 M330.452,245.163c-5.442-0.999-11.031-1.516-16.61-1.532l0.009-2.827c5.748,0.019,11.505,0.55,17.111,1.58L330.452,245.163z"/>
<rect x="344.12" y="264.813" transform="matrix(0.9076 0.4199 -0.4199 0.9076 175.794 -113.4336)" fill="#040000" width="2.828" height="155.487"/>
<rect x="162.616" y="342.945" transform="matrix(0.4196 0.9077 -0.9077 0.4196 452.085 -18.3105)" fill="#040000" width="155.489" height="2.825"/>
<rect x="278.93" y="365.945" transform="matrix(0.9467 0.322 -0.322 0.9467 140.4716 -69.5117)" fill="#040000" width="2.826" height="47.784"/>
<rect x="280.187" y="389.094" transform="matrix(0.3221 0.9467 -0.9467 0.3221 575.8163 -23.158)" fill="#040000" width="47.783" height="2.826"/>
<path fill="#D2411C" d="M307.555,363.553c98.643-104.482,98.662-137.711,98.662-137.724c3.627-11.416,5.586-23.574,5.586-36.191
	c0-48.224-28.589-88.207-69.74-106.214c-15.124-6.617-31.945-5.243-49.668-5.243c-17.067,0-33.298-1.639-47.983,4.521
	c-42.056,17.644-71.425,58.056-71.425,106.936c0,12.617,1.959,24.775,5.585,36.192c0.005,0.042,4.435,37.966,98.167,137.723v9.379
	h30.815V363.553z"/>
<path fill="#F1AB40" d="M274.388,77.986c0,0-61.161,18.398-53.832,115.528c6.359,84.293,47.346,133.195,47.346,133.195h-13.669
	c0,0-58.923-68.27-61.9-130.726c-4.689-98.376,61.901-116.298,61.901-116.298L274.388,77.986z"/>
<path fill="#F1AB40" d="M310.186,77.986c0,0,60.827,18.398,53.498,115.528c-6.36,84.293-47.348,133.195-47.348,133.195h13.671
	c0,0,58.923-68.27,61.899-130.726c4.689-98.376-61.9-116.298-61.9-116.298L310.186,77.986z"/>
<path fill="#F1AB40" d="M282.875,326.709c0,0-8.82-43.897-22.213-137.997C245.273,80.585,292.395,78.18,292.395,78.18
	s44.081,5.952,30.35,110.532C305.418,320.66,301.1,326.709,301.1,326.709H282.875z"/>
<rect x="204.62" y="348.072" transform="matrix(0.1961 0.9806 -0.9806 0.1961 558.824 17.3404)" fill="#040000" width="128.433" height="2.826"/>
<rect x="313.918" y="285.939" transform="matrix(0.9806 0.1962 -0.1962 0.9806 74.8495 -55.0743)" fill="#040000" width="2.826" height="128.433"/>
<path fill="#03375D" d="M269.967,412.455v34.498c0,2.775,2.25,5.025,5.024,5.025h34.238c2.773,0,5.023-2.25,5.023-5.025v-34.498
	H269.967z"/>
<path fill="#D9EEF5" d="M235.215,170.963c-2.292-20.09-19.347-35.696-40.051-35.696c-5.664,0-11.055,1.17-15.946,3.278
	c-9.182-10.245-22.516-16.695-37.359-16.695c-25.448,0-46.467,18.956-49.714,43.519c-15.445,0.277-27.883,12.875-27.883,28.386
	c0,12.709,8.349,23.467,19.86,27.091c2.275,1.219,4.873,1.911,7.635,1.911h139.858c0.611,0.043,1.225,0.072,1.847,0.072
	c14.339,0,25.965-11.624,25.965-25.965C259.428,183.113,248.737,171.866,235.215,170.963z"/>
<polygon fill="#A4D9EC" points="81.701,406.939 95.222,383.518 108.745,406.939 "/>
<rect x="93.809" y="395.229" fill="#A4D9EC" width="2.827" height="77.535"/>
<polygon fill="#A4D9EC" points="120.704,304.762 134.226,281.34 147.748,304.762 "/>
<rect x="132.813" y="293.051" fill="#A4D9EC" width="2.826" height="77.535"/>
<polygon fill="#A4D9EC" points="442.183,164.182 455.704,140.76 469.227,164.182 "/>
<rect x="454.291" y="152.471" fill="#A4D9EC" width="2.827" height="77.535"/>
<path fill="#A4D9EC" d="M102.979,182.598c0,0,6.783,8.479,20.914,10.175c19.414,2.33,38.955-6.738,47.765-27.416
	c6.715-15.761,7.56-26.813,7.56-26.813s7.292,15.953,1.202,36.422c-4.451,14.96-15.827,19.501-15.827,19.501
	s24.276,12.243,47.199-11.023c18.937-19.219,9.946-38.177,9.946-38.177c-3.312-2.295,12.905,10.487,13.477,25.694
	c0.884,23.506-20.313,31.384-20.313,31.384s21.197,4.593,31.372-4.204c8.705-7.526,9.971-13.744,9.971-13.744
	s10.096,14.31-3.757,30.133c-5.699,6.51-17.799,8.269-17.799,8.269s-139.124,1.835-147.438-0.681
	c-24.125-7.302-22.989-28.366-22.989-28.366s2.88,4.114,11.583,5.237C101.848,202.347,102.979,182.598,102.979,182.598z"/>
</svg>
