<?xml version="1.0" encoding="utf-8"?>
<!-- Generator: Adobe Illustrator 15.0.0, SVG Export Plug-In . SVG Version: 6.00 Build 0)  -->
<!DOCTYPE svg PUBLIC "-//W3C//DTD SVG 1.1//EN" "http://www.w3.org/Graphics/SVG/1.1/DTD/svg11.dtd">
<svg version="1.1" id="图层_1" xmlns="http://www.w3.org/2000/svg" xmlns:xlink="http://www.w3.org/1999/xlink" x="0px" y="0px"
	 width="566.93px" height="566.93px" viewBox="0 0 566.93 566.93" enable-background="new 0 0 566.93 566.93" xml:space="preserve">
<path fill="#786F83" d="M424.957,513.393c0,13.916-11.438,25.199-25.547,25.199h-4.089c-14.107,0-25.545-11.283-25.545-25.199
	v-55.514c0-13.916,11.438-25.197,25.545-25.197h4.089c14.108,0,25.547,11.281,25.547,25.197V513.393z"/>
<path fill="#FFFFFF" d="M398.533,434.441h-2.334v-10.936c0-6.674,6.506-12.102,14.5-12.102H532.16
	c6.709,0,12.168-5.457,12.168-12.166v-23.176c0-6.709-5.459-12.168-12.168-12.168h-76.623v-2.334h76.623
	c7.996,0,14.5,6.506,14.5,14.502v23.176c0,7.994-6.504,14.5-14.5,14.5H410.699c-6.707,0-12.166,4.383-12.166,9.768V434.441
	L398.533,434.441z"/>
<path fill="#FAFAFD" d="M424.957,505.006c0,13.918-11.438,25.201-25.547,25.201h-4.089c-14.107,0-25.545-11.283-25.545-25.201
	v-55.512c0-13.916,11.438-25.199,25.545-25.199h4.089c14.108,0,25.547,11.283,25.547,25.199V505.006z"/>
<path fill="#C7BCCF" d="M399.41,424.295h-2.043v105.912h2.043c14.108,0,25.547-11.283,25.547-25.201v-55.512
	C424.957,435.578,413.519,424.295,399.41,424.295z"/>
<rect x="369.776" y="469.611" fill="#786F83" width="55.181" height="2.578"/>
<path fill="#786F83" d="M402.79,456.6c0,2.555-2.429,4.627-5.423,4.627c-2.996,0-5.422-2.072-5.422-4.627v-22.256
	c0-2.555,2.426-4.625,5.422-4.625c2.994,0,5.423,2.07,5.423,4.625V456.6z"/>
<path fill="#1E2221" d="M459.664,353.146c0,11.109-9.005,20.113-20.113,20.113H101.639c-11.109,0-20.114-9.004-20.114-20.113
	V129.059c0-11.108,9.005-20.112,20.114-20.112h337.912c11.108,0,20.113,9.004,20.113,20.112V353.146L459.664,353.146z"/>
<path fill="#C7BCCF" d="M35.424,347.043v6.352c0,13.816,11.201,25.018,25.018,25.018h420.307c13.816,0,25.02-11.201,25.02-25.018
	v-6.352H35.424L35.424,347.043z"/>
<path fill="#1E2221" d="M316.807,356.623c0,1.449-2.468,2.621-5.512,2.621h-81.4c-3.045,0-5.512-1.172-5.512-2.621
	c0-1.447,2.467-2.621,5.512-2.621h81.4C314.339,354.002,316.807,355.176,316.807,356.623z"/>
<polygon fill="#E4E5E9" points="96.289,125.792 96.289,125.792 96.289,330.953 443.092,330.953 443.092,142.889 96.289,142.889 
	96.289,125.792 "/>
<polygon fill="#35A7AD" points="443.092,142.889 96.289,142.889 96.289,125.792 443.092,125.792 443.092,142.889 "/>
<rect x="263.07" y="181.146" fill="#FFFFFF" width="158.211" height="142.809"/>
<rect x="263.07" y="175.983" fill="#C7BCCF" width="158.211" height="17.912"/>
<rect x="116.24" y="64.691" fill="#FFFFFF" width="175.197" height="239.108"/>
<rect x="116.24" y="64.691" fill="#C7BCCF" width="175.197" height="19.364"/>
<rect x="127.302" y="125.31" fill="#35A7AD" width="44.25" height="158.283"/>
<rect x="179.733" y="128.666" fill="#C7BCCF" width="101.005" height="7.6"/>
<rect x="179.733" y="144.663" fill="#C7BCCF" width="101.005" height="7.598"/>
<rect x="179.733" y="160.66" fill="#C7BCCF" width="101.005" height="7.599"/>
<rect x="179.733" y="176.657" fill="#C7BCCF" width="101.005" height="7.599"/>
<rect x="179.733" y="192.654" fill="#C7BCCF" width="101.005" height="7.599"/>
<rect x="179.733" y="208.651" fill="#C7BCCF" width="101.005" height="7.6"/>
<rect x="179.733" y="224.647" fill="#C7BCCF" width="101.005" height="7.6"/>
<rect x="179.733" y="240.645" fill="#C7BCCF" width="101.005" height="7.6"/>
<rect x="179.733" y="256.641" fill="#C7BCCF" width="101.005" height="7.6"/>
<rect x="179.733" y="272.639" fill="#C7BCCF" width="101.005" height="7.599"/>
<rect x="324.318" y="212.398" fill="#D2411C" width="20.338" height="106.602"/>
<rect x="351.232" y="244.24" fill="#86BD43" width="20.339" height="74.76"/>
<rect x="379.271" y="265.7" fill="#2D405D" width="20.34" height="53.3"/>
<g>
	<defs>
		<path id="SVGID_1_" d="M431.088,131.432h-67.442c-0.933,0-1.688,1.173-1.688,2.62c0,1.445,0.756,2.619,1.688,2.619h67.442
			c0.933,0,1.688-1.174,1.688-2.619C432.775,132.605,432.021,131.432,431.088,131.432L431.088,131.432z"/>
	</defs>
	<clipPath id="SVGID_2_">
		<use xlink:href="#SVGID_1_"  overflow="visible"/>
	</clipPath>
	<rect x="361.957" y="131.432" clip-path="url(#SVGID_2_)" fill="#E5F1F7" width="70.818" height="5.239"/>
</g>
<path fill="#5B5C74" d="M480.758,378.412c-0.004,0-0.008,0-0.01,0h0.002C480.752,378.412,480.754,378.412,480.758,378.412
	L480.758,378.412z M60.323,378.412h0.009h-0.005H60.323z M480.889,378.412c-0.013,0-0.025,0-0.039,0
	C480.863,378.412,480.876,378.412,480.889,378.412L480.889,378.412z M481.033,378.41c-0.028,0.002-0.057,0.002-0.085,0.002
	C480.977,378.412,481.005,378.412,481.033,378.41L481.033,378.41z M481.141,378.41c-0.021,0-0.041,0-0.064,0
	C481.1,378.41,481.119,378.41,481.141,378.41L481.141,378.41z M492.666,375.396c-3.43,1.861-7.342,2.945-11.502,3.012
	C485.324,378.342,489.236,377.258,492.666,375.396L492.666,375.396z M492.736,375.357c-0.021,0.012-0.04,0.023-0.061,0.033
	C492.696,375.381,492.716,375.369,492.736,375.357L492.736,375.357z M492.852,375.295c-0.035,0.02-0.07,0.039-0.107,0.059
	C492.781,375.334,492.816,375.314,492.852,375.295L492.852,375.295z M492.922,375.256c-0.016,0.008-0.029,0.016-0.044,0.023
	C492.893,375.271,492.906,375.264,492.922,375.256L492.922,375.256z M493.004,375.211c-0.014,0.006-0.025,0.012-0.037,0.02
	C492.979,375.225,492.99,375.217,493.004,375.211L493.004,375.211z M493.104,375.154c-0.006,0.004-0.016,0.008-0.023,0.012
	C493.09,375.162,493.096,375.158,493.104,375.154L493.104,375.154z M493.186,375.105c-0.002,0.002-0.006,0.004-0.008,0.006
	C493.18,375.109,493.184,375.107,493.186,375.105L493.186,375.105z"/>
<path fill="#978EA1" d="M503.369,364.092H37.826c3.994,8.43,12.56,14.273,22.497,14.32h0.009c0.039,0,0.074,0,0.112,0H480.75
	c0,0,0.004,0,0.008,0c0.028,0,0.062,0,0.092,0c0.014,0,0.026,0,0.039,0c0.02,0,0.039,0,0.06,0c0.028,0,0.057,0,0.085-0.002
	c0.014,0,0.029,0,0.043,0c0.023,0,0.043,0,0.064,0c0.008,0,0.016-0.002,0.023-0.002c4.16-0.066,8.072-1.15,11.502-3.012
	c0.002-0.002,0.008-0.004,0.01-0.006c0.021-0.01,0.04-0.021,0.061-0.033c0.004-0.002,0.008-0.004,0.008-0.004
	c0.037-0.02,0.072-0.039,0.107-0.059c0.008-0.004,0.017-0.01,0.026-0.016c0.015-0.008,0.028-0.016,0.044-0.023
	c0.015-0.008,0.031-0.018,0.045-0.025c0.012-0.008,0.023-0.014,0.037-0.02c0.025-0.016,0.051-0.029,0.076-0.045
	c0.008-0.004,0.018-0.008,0.023-0.012c0.023-0.016,0.049-0.029,0.074-0.043c0.002-0.002,0.006-0.004,0.008-0.006
	C497.606,372.566,501.177,368.719,503.369,364.092L503.369,364.092z"/>
<polygon fill="#FFFFFF" points="277.739,279.655 278.096,307.648 112.153,307.648 112.153,57.72 306.067,57.72 306.067,279.676 "/>
<rect x="112.153" y="57.72" fill="#D2411C" width="193.914" height="25.603"/>
<rect x="148.018" y="100.011" fill="#C7BCCF" width="122.186" height="1.728"/>
<rect x="148.018" y="108.193" fill="#C7BCCF" width="122.186" height="1.728"/>
<rect x="148.018" y="116.375" fill="#C7BCCF" width="122.186" height="1.728"/>
<rect x="148.018" y="124.558" fill="#C7BCCF" width="122.186" height="1.728"/>
<rect x="148.018" y="132.74" fill="#C7BCCF" width="122.186" height="1.728"/>
<rect x="132.337" y="150.02" fill="#D2411C" width="9.056" height="41.052"/>
<rect x="188.584" y="150.02" fill="#2D405D" width="41.051" height="51.401"/>
<rect x="244.891" y="150.02" fill="#35A7AD" width="41.053" height="51.401"/>
<rect x="132.337" y="196.467" fill="#35A7AD" width="41.054" height="4.953"/>
<rect x="188.371" y="215.774" fill="#C7BCCF" width="41.477" height="2.792"/>
<rect x="188.371" y="223.33" fill="#C7BCCF" width="41.477" height="2.792"/>
<rect x="188.371" y="230.885" fill="#C7BCCF" width="41.477" height="2.792"/>
<rect x="188.371" y="238.441" fill="#C7BCCF" width="41.477" height="2.791"/>
<rect x="188.371" y="245.997" fill="#C7BCCF" width="41.477" height="2.791"/>
<rect x="188.371" y="253.552" fill="#C7BCCF" width="41.477" height="2.79"/>
<rect x="188.371" y="261.107" fill="#C7BCCF" width="41.477" height="2.791"/>
<rect x="188.371" y="268.663" fill="#C7BCCF" width="41.477" height="2.791"/>
<rect x="244.42" y="215.774" fill="#C7BCCF" width="41.478" height="2.793"/>
<rect x="244.42" y="223.331" fill="#C7BCCF" width="41.478" height="2.791"/>
<rect x="244.42" y="230.886" fill="#C7BCCF" width="41.478" height="2.792"/>
<rect x="244.42" y="238.441" fill="#C7BCCF" width="41.478" height="2.792"/>
<rect x="244.42" y="245.997" fill="#C7BCCF" width="41.478" height="2.792"/>
<rect x="244.42" y="253.552" fill="#C7BCCF" width="41.478" height="2.791"/>
<rect x="244.42" y="261.107" fill="#C7BCCF" width="41.478" height="2.791"/>
<rect x="244.42" y="268.663" fill="#C7BCCF" width="41.478" height="2.792"/>
<rect x="132.55" y="283.323" fill="#86BD43" width="153.136" height="4.955"/>
<polygon fill="#2D405D" points="277.887,279.563 305.858,279.563 277.887,307.535 "/>
<rect x="148.335" y="160.894" fill="#D2411C" width="9.056" height="30.178"/>
<rect x="164.568" y="175.983" fill="#D2411C" width="9.055" height="15.088"/>
<rect x="125.637" y="210.466" fill="#35A7AD" width="48.178" height="59.591"/>
<circle fill="#FAFAFD" cx="126.627" cy="71.86" r="3.92"/>
<path fill="#FAFAFD" d="M164.231,72.336c0,0.864-0.7,1.565-1.565,1.565h-26.891c-0.864,0-1.566-0.701-1.566-1.565
	c0-0.863,0.702-1.564,1.566-1.564h26.891C163.531,70.772,164.231,71.473,164.231,72.336z"/>
<path fill="#FFFFFF" d="M133.582,256.454c-1.146-1.001-2.206-2.113-3.147-3.307l10.468-8.26c0.434,0.547,0.918,1.057,1.443,1.516
	L133.582,256.454z M169.111,253.022l-10.523-8.189c0.43-0.551,0.808-1.145,1.126-1.764l11.854,6.106
	C170.872,250.526,170.045,251.821,169.111,253.022z M138.885,235.012l-12.873-3.477c0.396-1.471,0.936-2.912,1.6-4.285l12,5.813
	C139.31,233.688,139.064,234.344,138.885,235.012z M159.807,232.994c-0.306-0.62-0.672-1.219-1.09-1.774l10.664-8.004
	c0.916,1.22,1.722,2.531,2.394,3.898L159.807,232.994z M147.602,226.918l-2.493-13.1c0.966-0.183,1.956-0.311,2.942-0.379
	c0.531-0.035,1.064-0.055,1.59-0.057l0.057,13.334c-0.243,0.001-0.492,0.01-0.738,0.027
	C148.505,226.774,148.047,226.834,147.602,226.918z"/>
<polygon fill="#D2411C" points="100.211,311.715 153.223,236.904 61.928,228.4 83.625,251.67 39.354,272.014 52.413,300.438 
	96.688,280.094 "/>
<polygon fill="#BF391F" points="52.413,300.438 96.688,280.094 100.211,311.715 153.223,236.904 45.883,286.227 "/>
<ellipse transform="matrix(-0.9567 -0.2911 0.2911 -0.9567 524.1953 632.8724)" fill="#E7BE22" cx="309.171" cy="277.446" rx="32.728" ry="40.483"/>
<ellipse transform="matrix(-0.9567 -0.2911 0.2911 -0.9567 511.8209 627.0004)" fill="#E7BE22" cx="302.547" cy="275.43" rx="32.728" ry="40.485"/>
<path fill="#DD7B27" d="M298.608,318.324h-0.002c-2.964,0-5.896-0.436-8.716-1.293c-9.247-2.814-16.562-9.855-20.598-19.826
	c-3.945-9.748-4.272-21.174-0.927-32.174c5.822-19.132,21.497-32.494,38.12-32.494c2.963,0,5.896,0.435,8.717,1.294
	c9.248,2.813,16.563,9.854,20.598,19.824c3.945,9.749,4.273,21.176,0.928,32.175C330.906,304.961,315.231,318.324,298.608,318.324z
	 M306.486,238.537c-14.005,0-27.32,11.613-32.378,28.24c-6.018,19.774,1.847,39.741,17.528,44.514
	c2.254,0.686,4.598,1.033,6.97,1.033c14.007,0,27.321-11.611,32.382-28.24c6.016-19.773-1.85-39.743-17.529-44.513
	C311.204,238.884,308.858,238.537,306.486,238.537z"/>
<path fill="#DD7B27" d="M308.088,254.146l2.145,0.8c0.537-1.422,1.317-2.105,2.342-2.055c0.383,0.021,0.564,0.238,0.544,0.657
	c-0.026,0.527-0.296,1.239-0.805,2.136l-0.065,0.16l-0.064,0.159c2.273,1.367,3.363,2.966,3.271,4.794
	c-0.039,0.779-0.266,1.566-0.675,2.361c-0.411,0.797-0.921,1.462-1.524,1.993c-0.604,0.533-1.159,0.786-1.665,0.761
	c-0.899-0.045-1.707-0.927-2.415-2.645l-2.895,7.293c1.14,1.135,1.943,1.979,2.41,2.533c0.466,0.555,0.953,1.243,1.457,2.067
	c1.221,1.804,1.775,3.818,1.662,6.044c-0.104,2.046-0.779,3.921-2.025,5.626c-1.245,1.707-2.915,3.061-5.006,4.061
	c-2.089,1.002-4.434,1.564-7.031,1.688l-0.131,0.324c-1.295,2.873-2.059,4.412-2.285,4.617c-0.059,0.088-0.181,0.129-0.361,0.119
	c-0.256-0.014-0.371-0.229-0.35-0.645c0.008-0.145,0.102-0.553,0.279-1.225c0.179-0.672,0.496-1.693,0.955-3.066l0.127-0.318
	l-2.766-0.684c-0.524,1.549-1.315,3.268-2.373,5.156c-0.162,0.338-0.326,0.5-0.487,0.494c-0.146-0.008-0.269-0.096-0.37-0.264
	c-0.102-0.17-0.146-0.316-0.141-0.443c0.021-0.416,0.428-1.813,1.221-4.186c0.156-0.592,0.287-1.012,0.39-1.26l0.126-0.322
	c-3.629-1.834-5.418-3.285-5.364-4.355c0.018-0.361,0.253-0.875,0.706-1.543c0.451-0.666,0.924-1.224,1.42-1.671
	c0.361-0.344,0.807-0.698,1.335-1.063c0.526-0.363,0.995-0.64,1.405-0.828c0.41-0.188,0.74-0.274,0.995-0.262
	c0.524,0.025,1.12,0.483,1.784,1.372c0.17,0.227,0.342,0.436,0.514,0.626l2.865-7.533c-1.441-1.2-2.432-2.072-2.965-2.616
	c-0.535-0.545-1.186-1.3-1.953-2.266c-1.498-1.945-2.192-4.014-2.083-6.205c0.105-2.082,0.917-4.102,2.435-6.058
	c0.762-1.015,1.598-1.84,2.504-2.475c0.904-0.635,1.977-1.148,3.216-1.539c2.052-0.604,4.022-0.859,5.91-0.764
	c0.255,0.013,0.495,0.029,0.722,0.05c0.226,0.021,0.475,0.047,0.748,0.078c0.113-0.302,0.383-0.569,0.813-0.803
	c0.431-0.232,0.86-0.338,1.296-0.315c0.271,0.013,0.398,0.21,0.378,0.591C308.26,253.392,308.2,253.673,308.088,254.146z
	 M298.994,277.143l-2.885,7.269l2.104,1.385l2.503-6.849L298.994,277.143z M302.191,280.989l-2.074,5.535
	c0.764,0.289,1.333,0.443,1.712,0.461c0.739,0.039,1.144-0.613,1.21-1.953C303.1,283.856,302.814,282.508,302.191,280.989z
	 M301.582,264.956l2.674-6.793c-0.615-0.104-0.932-0.156-0.949-0.157c-1.733-0.087-2.658,1.058-2.779,3.438
	C300.456,262.659,300.807,263.831,301.582,264.956z M306.124,259.103l-3.177,7.87l1.577,1.753l3.348-7.769l-0.153-0.226
	C307.039,259.937,306.506,259.393,306.124,259.103z"/>
</svg>
